<svg width="25" height="24" viewBox="0 0 25 24" fill="none" xmlns="http://www.w3.org/2000/svg">
<path d="M17.6166 22.75C16.4866 22.75 15.2966 22.48 14.0666 21.96C12.8666 21.45 11.6566 20.75 10.4766 19.9C9.30663 19.04 8.17663 18.08 7.10663 17.03C6.04663 15.96 5.08663 14.83 4.23663 13.67C3.37663 12.47 2.68663 11.27 2.19663 10.11C1.67663 8.87 1.41663 7.67 1.41663 6.54C1.41663 5.76 1.55663 5.02 1.82663 4.33C2.10663 3.62 2.55663 2.96 3.16663 2.39C3.93663 1.63 4.81663 1.25 5.75663 1.25C6.14663 1.25 6.54663 1.34 6.88663 1.5C7.27663 1.68 7.60663 1.95 7.84663 2.31L10.1666 5.58C10.3766 5.87 10.5366 6.15 10.6466 6.43C10.7766 6.73 10.8466 7.03 10.8466 7.32C10.8466 7.7 10.7366 8.07 10.5266 8.42C10.3766 8.69 10.1466 8.98 9.85663 9.27L9.17663 9.98C9.18663 10.01 9.19663 10.03 9.20663 10.05C9.32663 10.26 9.56663 10.62 10.0266 11.16C10.5166 11.72 10.9766 12.23 11.4366 12.7C12.0266 13.28 12.5166 13.74 12.9766 14.12C13.5466 14.6 13.9166 14.84 14.1366 14.95L14.1166 15L14.8466 14.28C15.1566 13.97 15.4566 13.74 15.7466 13.59C16.2966 13.25 16.9966 13.19 17.6966 13.48C17.9566 13.59 18.2366 13.74 18.5366 13.95L21.8566 16.31C22.2266 16.56 22.4966 16.88 22.6566 17.26C22.8066 17.64 22.8766 17.99 22.8766 18.34C22.8766 18.82 22.7666 19.3 22.5566 19.75C22.3466 20.2 22.0866 20.59 21.7566 20.95C21.1866 21.58 20.5666 22.03 19.8466 22.32C19.1566 22.6 18.4066 22.75 17.6166 22.75ZM5.75663 2.75C5.20663 2.75 4.69663 2.99 4.20663 3.47C3.74663 3.9 3.42663 4.37 3.22663 4.88C3.01663 5.4 2.91663 5.95 2.91663 6.54C2.91663 7.47 3.13663 8.48 3.57663 9.52C4.02663 10.58 4.65663 11.68 5.45663 12.78C6.25663 13.88 7.16663 14.95 8.16663 15.96C9.16663 16.95 10.2466 17.87 11.3566 18.68C12.4366 19.47 13.5466 20.11 14.6466 20.57C16.3566 21.3 17.9566 21.47 19.2766 20.92C19.7866 20.71 20.2366 20.39 20.6466 19.93C20.8766 19.68 21.0566 19.41 21.2066 19.09C21.3266 18.84 21.3866 18.58 21.3866 18.32C21.3866 18.16 21.3566 18 21.2766 17.82C21.2466 17.76 21.1866 17.65 20.9966 17.52L17.6766 15.16C17.4766 15.02 17.2966 14.92 17.1266 14.85C16.9066 14.76 16.8166 14.67 16.4766 14.88C16.2766 14.98 16.0966 15.13 15.8966 15.33L15.1366 16.08C14.7466 16.46 14.1466 16.55 13.6866 16.38L13.4166 16.26C13.0066 16.04 12.5266 15.7 11.9966 15.25C11.5166 14.84 10.9966 14.36 10.3666 13.74C9.87663 13.24 9.38663 12.71 8.87663 12.12C8.40663 11.57 8.06663 11.1 7.85663 10.71L7.73663 10.41C7.67663 10.18 7.65663 10.05 7.65663 9.91C7.65663 9.55 7.78663 9.23 8.03663 8.98L8.78663 8.2C8.98663 8 9.13663 7.81 9.23663 7.64C9.31663 7.51 9.34663 7.4 9.34663 7.3C9.34663 7.22 9.31663 7.1 9.26663 6.98C9.19663 6.82 9.08663 6.64 8.94663 6.45L6.62663 3.17C6.52663 3.03 6.40663 2.93 6.25663 2.86C6.09663 2.79 5.92663 2.75 5.75663 2.75ZM14.1166 15.01L13.9566 15.69L14.2266 14.99C14.1766 14.98 14.1366 14.99 14.1166 15.01Z" fill="#3B3B3B"/>
</svg>
