<svg width="26" height="26" viewBox="0 0 26 26" fill="none" xmlns="http://www.w3.org/2000/svg">
<path fill-rule="evenodd" clip-rule="evenodd" d="M10.0188 2.3449L7.12748 5.23618H18.8725L15.9812 2.3449C15.655 2.01865 15.655 1.47865 15.9812 1.1524C16.3075 0.826152 16.8475 0.826152 17.1737 1.1524L21.2575 5.23615L21.2575 5.23618H21.7525C22.8325 5.23618 25.0938 5.23618 25.0938 8.32993C25.0938 9.49993 24.8575 10.2762 24.34 10.7824C24.0371 11.0854 23.6799 11.2465 23.3043 11.3315L21.4938 20.7612C21.055 23.0449 20.3238 25.0924 16.2513 25.0924H9.46752C5.44002 25.0924 4.54002 22.6962 4.19127 20.6149L2.67776 11.33C2.30965 11.2433 1.95886 11.0813 1.66 10.7824C1.1425 10.2762 0.90625 9.48868 0.90625 8.32993C0.90625 5.23618 3.1675 5.23618 4.2475 5.23618H4.74249L4.74251 5.23615L8.82626 1.1524C9.15251 0.826152 9.69252 0.826152 10.0188 1.1524C10.345 1.47865 10.345 2.01865 10.0188 2.3449ZM4.4022 11.4237L5.85627 20.3337C6.18252 22.3249 6.85752 23.4049 9.46752 23.4049H16.2513C19.1425 23.4049 19.4688 22.3924 19.84 20.4349L21.5702 11.4237H4.4022ZM4.2475 9.73618H22.0112C22.5175 9.74743 22.99 9.74743 23.1475 9.58993C23.2262 9.51118 23.395 9.24118 23.395 8.32993C23.395 7.05868 23.08 6.92368 21.7413 6.92368H4.2475C2.90875 6.92368 2.59375 7.05868 2.59375 8.32993C2.59375 9.24118 2.77375 9.51118 2.84125 9.58993C2.99875 9.73618 3.4825 9.73618 3.9775 9.73618H4.2475ZM9.63628 19.2424C9.63628 19.7037 10.0188 20.0862 10.48 20.0862C10.9413 20.0862 11.3238 19.7149 11.3238 19.2424V15.2487C11.3238 14.7874 10.9413 14.4049 10.48 14.4049C10.0188 14.4049 9.63628 14.7874 9.63628 15.2487V19.2424ZM15.655 20.0862C15.1937 20.0862 14.8112 19.7037 14.8112 19.2424V15.2487C14.8112 14.7874 15.1937 14.4049 15.655 14.4049C16.1162 14.4049 16.4987 14.7874 16.4987 15.2487V19.2424C16.4987 19.7149 16.1162 20.0862 15.655 20.0862Z" fill="#541F42"/>
</svg>
