<svg width="23" height="25" viewBox="0 0 23 25" fill="none" xmlns="http://www.w3.org/2000/svg">
<path d="M12.5281 4.16065C12.5281 4.16065 10.3932 0.973829 6.96917 1.39668C3.54514 1.81952 1.36904 3.46965 1.36904 6.99681C1.36904 10.524 7.63954 14.8143 9.07309 16.4645C10.7232 18.3518 11.8164 20.7445 11.703 20.8786C11.5895 21.0126 15.9005 16.1344 17.7569 14.2883C20.0259 12.0194 21.9235 8.09003 20.4281 5.7489C19.2214 3.86156 18.3242 3.34589 16.6328 3.18088C14.9414 3.01587 12.5177 4.17096 12.5177 4.17096L12.5281 4.16065Z" fill="white"/>
<g opacity="0.8">
<g opacity="0.8">
<path d="M21.6451 5.72821C22.1504 6.81111 22.0988 7.98683 21.8719 8.97691C21.6347 9.9773 21.2119 10.8643 20.7375 11.679C20.2631 12.4938 19.7474 13.2363 19.2214 13.9479C18.9636 14.2883 18.7057 14.6286 18.4273 14.9896C18.2004 15.299 17.9838 15.629 17.8085 15.959C17.6332 16.2478 17.4681 16.5572 17.3031 16.8563L17.695 16.5263C18.0663 16.2169 18.4376 15.9075 18.8089 15.5981C19.1905 15.2887 19.6546 14.8452 20.0362 14.4327C20.8097 13.5767 21.4904 12.6072 22.0266 11.5243C22.5526 10.4414 22.9548 9.19349 22.9858 7.75994C22.9755 7.0277 22.862 6.25419 22.5423 5.50132C22.4701 5.31568 22.3567 5.13004 22.2638 4.95471L22.1092 4.68657L21.9854 4.51124C21.8204 4.27403 21.6451 4.03683 21.4491 3.79962C20.9437 3.2427 20.2837 2.6239 19.407 2.22168C18.5304 1.81946 17.6332 1.72664 16.9009 1.73696C15.1167 1.73696 13.8172 2.35576 12.4146 2.86111C12.1052 2.98487 12.1877 3.30458 12.2393 3.45928C12.6003 3.52116 12.8993 3.63461 13.1881 3.76868C14.1988 3.29427 15.2611 2.81986 16.4987 2.76829C17.0969 2.76829 17.695 2.80954 18.3138 3.02612C18.9326 3.23239 19.4999 3.64492 19.9227 4.10902C20.4693 4.76907 21.346 5.08879 21.6451 5.73853V5.72821Z" fill="white"/>
<path d="M13.085 3.74809L13.1469 3.77903L13.4459 3.62433L13.085 3.74809Z" fill="white"/>
<path d="M18.7161 3.08805C19.5617 3.41807 20.1599 4.08844 20.6034 4.71755C20.7994 4.87225 21.0262 5.03727 21.2016 5.18166C21.3872 5.34667 21.5522 5.56325 21.6347 5.73857C22.1401 6.82147 22.0885 7.99719 21.8616 8.98727C21.6244 9.98767 21.2016 10.8746 20.7272 11.6894C20.2527 12.5041 19.7371 13.2467 19.2111 13.9583C18.9533 14.2986 18.6954 14.639 18.417 14.9999C18.1901 15.3093 17.9735 15.6394 17.7982 15.9694C17.6228 16.2582 17.4578 16.5573 17.3031 16.8563L17.726 16.4954L18.4995 15.8456C18.747 15.6394 19.0048 15.4331 19.3142 15.1443C19.9021 14.5977 20.4281 13.9996 20.9128 13.3498L21.0056 13.1023C21.2944 12.2257 21.9235 11.6172 22.2638 10.7612C22.6248 9.51325 22.9239 8.27565 22.7383 6.83179C22.6661 6.12017 22.367 5.33635 21.9544 4.69693C21.645 4.22251 21.2738 3.72747 20.7581 3.23243C20.3868 2.88178 19.8712 2.57238 19.3039 2.3558C18.7264 2.12891 18.1282 2.03609 17.5713 1.91233C17.1691 1.85045 16.9009 1.78857 16.4678 1.74731C14.8383 1.87107 13.6625 2.40737 12.3424 2.89209C12.033 3.01585 12.1155 3.33557 12.1671 3.50058C12.3734 3.52121 12.5281 3.58309 12.6931 3.63466C13.6935 3.284 14.7042 2.93335 15.8283 2.85084C16.313 2.76833 16.8287 2.77865 17.3134 2.83021C17.8085 2.89209 18.3345 3.01585 18.8089 3.27369C18.7883 3.22212 18.747 3.17056 18.6954 3.11899L18.7161 3.08805Z" fill="white"/>
<path d="M18.5717 3.56247C18.6748 3.63466 18.9636 3.53153 18.8295 3.23244C18.3551 2.97461 17.8291 2.85085 17.3341 2.78897C16.8493 2.7374 16.344 2.72709 15.8489 2.8096C16.3234 2.77866 16.8184 2.84054 17.2619 2.95398C17.7157 3.06743 18.1798 3.26339 18.5717 3.55216V3.56247Z" fill="white"/>
<path d="M17.9322 4.51126C18.4479 4.84128 18.9636 5.35695 19.4586 5.98606C19.5824 6.15108 19.6958 6.30578 19.7577 6.41922C19.8402 6.53267 19.8918 6.67705 19.933 6.82144C20.0155 7.0999 20.0155 7.41962 19.9537 7.70839C19.8299 8.32719 19.438 8.91505 18.9533 9.32758C18.9017 9.52353 18.8192 9.70918 18.747 9.90513C18.2829 11.1118 17.5507 12.2875 16.6328 13.2776C15.5499 14.443 14.5392 15.5878 13.5078 16.7326L12.4352 17.9083L12.229 18.1145L12.1258 18.2074L12.0743 18.2486C12.0743 18.2486 12.0743 18.197 12.064 18.1661C12.0021 17.9598 11.9196 17.7639 11.868 17.6092C11.8474 17.5679 11.8783 17.6092 11.8061 17.4957L11.6514 17.2276L11.3214 16.7016C11.0945 16.351 10.8573 16.0003 10.6098 15.66C10.3829 15.3506 9.98067 14.9277 9.7022 14.6802C9.39281 14.3914 9.10404 14.1645 8.80495 13.9273C8.20678 13.4632 7.61892 13.0507 7.03106 12.6278C5.85534 11.7925 4.6693 10.9777 3.61734 9.9567C3.06042 9.30696 2.72008 8.59533 2.586 7.94559C2.56538 7.79089 2.55507 7.6362 2.53444 7.47118C2.55507 7.3268 2.57569 7.18241 2.586 7.04834C2.64788 6.708 2.74071 6.34703 2.85415 6.00669C3.18418 5.17131 3.52452 4.61439 4.04019 4.10904C4.54554 3.60368 5.26747 3.16021 6.13379 2.79924C7.05168 2.44859 7.85612 2.13919 8.82557 2.25264C9.78471 2.32483 10.7851 2.77862 11.6514 3.49024C12.5384 4.24311 13.6935 3.80995 13.5078 3.47992C12.7446 2.57235 11.9505 1.90198 10.9811 1.33475C10.0322 0.777829 8.91839 0.447803 7.79424 0.416863C7.22701 0.40655 6.6804 0.489056 6.19567 0.561249C5.69032 0.664382 5.19528 0.767519 4.68992 0.942845C3.69984 1.27287 2.69945 1.80917 1.92595 2.65486C1.14214 3.49024 0.678041 4.59376 0.502715 5.65604C0.430521 6.20264 0.368645 6.68737 0.409898 7.27523C0.440838 7.89403 0.616161 8.45095 0.832741 8.95631C1.2659 9.97732 1.8847 10.8024 2.55507 11.5553C3.22543 12.3081 3.93706 12.9888 4.67962 13.6282C5.8244 14.6183 7.01042 15.5362 8.04176 16.4747C8.52648 16.9182 8.94933 17.4442 9.34124 18.0114C9.53719 18.3002 9.70221 18.558 9.90848 18.8984C10.0322 19.1046 10.156 19.3315 10.2798 19.5584C10.321 19.5997 10.321 19.7028 10.3829 19.6925L10.5582 19.7131L10.7335 19.7337C10.7954 19.7337 10.8573 19.7337 10.8676 19.8059C10.9604 20.0225 11.0429 20.2494 11.1255 20.5072C11.1976 20.7857 11.2801 21.0332 11.3214 21.5179L11.342 21.683C11.342 21.683 11.342 21.8789 11.342 21.9717V22.6215L11.2905 23.5497V23.7766L11.3627 23.3434L11.5277 22.4668L11.7546 20.9095H11.7958L11.8783 20.8682C11.9299 20.8579 11.9918 20.8373 12.0536 20.8373C12.1774 20.8166 12.3115 20.8166 12.4662 20.8373C12.559 20.8579 12.6209 20.8579 12.7343 20.8991L12.889 20.9507C12.9406 20.9816 12.9922 20.992 13.0334 20.9198L14.1163 19.8162C14.5392 19.3831 14.7557 19.1871 15.0136 18.9499L15.7871 18.2383C16.3027 17.7742 16.8184 17.3101 17.3444 16.8666C17.5094 16.5572 17.6744 16.2581 17.8497 15.9694C18.0354 15.629 18.2417 15.3093 18.4685 14.9999C18.747 14.6389 19.0048 14.2986 19.2627 13.9583C19.7886 13.2466 20.3146 12.5041 20.7787 11.6893C21.2428 10.8746 21.676 9.98764 21.9132 8.98724C22.1401 7.99716 22.1813 6.82144 21.6863 5.73854C21.3872 5.07849 20.5106 4.75878 19.964 4.10904C19.5411 3.64494 18.9739 3.23241 18.3551 3.02614C17.7363 2.80956 17.1381 2.76831 16.5399 2.76831C15.3023 2.81987 14.2401 3.28397 13.2294 3.7687C13.8275 4.04716 14.3123 4.3875 14.797 4.6247C15.3436 4.37718 15.9315 4.17092 16.4368 4.15029C16.9937 4.12967 17.6125 4.25342 17.9735 4.52157L17.9322 4.51126Z" fill="white"/>
<path d="M17.9322 4.51128C17.5713 4.23282 16.9525 4.11937 16.3956 4.14C15.8902 4.16063 15.3023 4.35658 14.7557 4.61441C14.9929 4.72786 15.2302 4.81037 15.4777 4.86193C15.818 4.89287 16.1274 4.93413 16.3543 4.99601C16.4987 5.03726 16.6431 5.07851 16.7875 5.10945C16.9422 5.15071 17.0762 5.20227 17.1897 5.24353C17.4269 5.33635 17.5403 5.41885 17.7054 5.5323C17.8601 5.64575 18.0663 5.8417 18.2829 6.09953C18.3963 6.22329 18.4995 6.36768 18.6129 6.51207L18.7883 6.74927L18.8708 6.87303C18.9842 7.00711 19.0564 7.21337 19.1183 7.45058C19.2214 7.95593 19.1595 8.63661 18.9533 9.30698C19.438 8.89445 19.8196 8.3169 19.9537 7.68778C20.0155 7.39901 20.0155 7.08962 19.933 6.80084C19.8918 6.66677 19.8402 6.52238 19.7577 6.39862C19.6958 6.28517 19.5927 6.13047 19.4586 5.96546C18.9636 5.33635 18.4582 4.82068 17.9322 4.49065V4.51128Z" fill="white"/>
<path d="M17.9322 4.51129C17.5816 4.24315 17.0247 4.1297 16.4574 4.1297C15.983 4.1297 15.4261 4.30503 14.9001 4.53192C15.292 4.50098 15.6633 4.48035 16.0037 4.47004C16.2306 4.47004 16.3749 4.47004 16.6121 4.51129C16.8597 4.54223 17.0762 4.58349 17.2722 4.64537C17.6641 4.7485 17.9219 4.9032 18.2107 5.16103C18.4892 5.41887 18.7676 5.80046 19.0151 6.23362C19.077 6.33675 19.1492 6.46051 19.1905 6.56364L19.2524 6.78023C19.273 6.93493 19.3039 7.07931 19.2833 7.25464C19.2627 7.07931 19.2111 6.93493 19.1492 6.80085C19.108 6.72866 19.0976 6.6874 19.0358 6.58427L18.8192 6.25424C18.5304 5.82108 18.221 5.47043 17.9529 5.26416C17.6847 5.06821 17.4269 4.95477 16.9834 4.88257C16.4678 4.80007 16.1893 4.80006 15.7149 4.89288C16.0346 4.92382 16.2821 4.97539 16.4987 5.04759C16.8287 5.13009 17.1072 5.2126 17.3031 5.2951C17.4991 5.37761 17.6228 5.46012 17.7879 5.59419C17.9529 5.72826 18.1591 5.93453 18.3654 6.19237C18.5614 6.41926 18.8708 6.85242 18.912 6.9143C19.0048 7.05868 19.0873 7.25464 19.1286 7.50216C19.2214 7.9972 19.1595 8.66757 18.9636 9.30699C19.438 8.89446 19.8299 8.31691 19.9536 7.69811C20.0155 7.40934 20.0155 7.09994 19.933 6.81116C19.8918 6.67709 19.8402 6.5327 19.7577 6.40894C19.6958 6.2955 19.5927 6.1408 19.4586 5.97578C18.9636 5.34667 18.4582 4.831 17.9322 4.50098V4.51129Z" fill="white"/>
<path d="M19.9846 6.64615C19.8712 6.20268 19.4792 5.57356 19.1183 5.09915C18.747 4.61442 18.3138 4.24314 17.7879 4.04719C17.2619 3.85124 16.5709 3.76873 16.0037 3.8203C15.3952 3.88218 14.7764 4.07813 14.1782 4.34628C14.3226 4.42879 14.4567 4.50098 14.601 4.57317C14.7145 4.57317 14.8073 4.55255 14.9104 4.55255C15.4364 4.32565 15.9933 4.15033 16.4678 4.15033C17.0247 4.15033 17.5816 4.26377 17.9426 4.53192C18.4582 4.86195 18.9739 5.37761 19.4689 6.00673C19.5927 6.17174 19.7061 6.32644 19.768 6.43988C19.8505 6.55333 19.9021 6.69772 19.9433 6.8421C20.0259 7.12056 20.0259 7.44028 19.964 7.72905C19.8402 8.34785 19.4483 8.93571 18.9739 9.33793C18.9326 9.52357 18.8398 9.6989 18.7779 9.88454C18.3138 11.1221 17.561 12.3185 16.6121 13.3292C15.5086 14.5152 14.4773 15.6909 13.4253 16.8563C13.2294 17.1451 13.0334 17.4236 12.8271 17.702C12.6931 17.8774 12.7137 17.8774 12.6725 17.9496L12.559 18.1249C12.4043 18.3518 12.1774 18.6612 12.0227 18.7849C11.9402 18.4962 11.7958 18.1971 11.703 17.9289L11.6308 17.733L11.3627 17.2379C11.1667 16.8976 10.9707 16.5676 10.7645 16.2375C10.9914 16.5263 11.1976 16.8254 11.4039 17.1245L11.8164 17.7536L12.0846 18.1661C12.0227 17.9599 11.9505 17.7742 11.8886 17.6195C11.868 17.5886 11.8886 17.6195 11.8371 17.5061L11.6824 17.2483L11.3627 16.7326C11.1461 16.3922 10.9089 16.0519 10.6717 15.7116C9.65064 14.4224 8.61931 13.7933 7.61892 13.0507C7.23732 13.1126 6.76291 13.0507 6.20599 12.6382C5.33967 12.0091 4.63836 11.2665 3.73079 10.6374C3.63797 10.524 3.84423 10.3899 3.66891 10.163C4.14332 10.8127 4.7415 11.1943 5.32935 11.4212C4.7415 10.9881 4.18458 10.524 3.64828 10.0083C2.75102 8.99759 2.41068 7.80124 2.62726 6.95555V6.59458C2.62726 5.99641 2.60664 5.39824 2.72008 4.80006C2.59632 5.00633 2.51382 5.24354 2.43131 5.49106C2.40037 5.06821 2.62726 4.57317 2.85415 4.27409C2.8129 4.45973 2.74071 4.61442 2.72008 4.80006C2.98823 4.29471 3.34919 3.88218 3.84423 3.53152C3.23575 3.96468 2.91604 4.66599 2.86447 5.27448C3.24606 4.06782 4.21552 3.21181 5.63876 3.01586C5.60782 3.03648 5.57687 3.06742 5.54593 3.08805C5.98941 2.87147 6.47414 2.66521 7.00012 2.50019C7.48484 2.3558 7.94894 2.22173 8.47492 2.24236C9.51657 2.24236 10.6717 2.67552 11.6205 3.46964C12.0846 3.85124 12.559 3.90281 12.9406 3.85124C13.3222 3.79967 13.5903 3.62435 13.4666 3.42839C12.4249 2.22173 11.2183 1.29353 9.72284 0.767552C8.98028 0.509718 8.18615 0.396274 7.40234 0.427214C6.5979 0.468467 5.96878 0.602539 5.24685 0.788179C3.86486 1.14915 2.39006 1.89171 1.46186 3.22213C0.997755 3.87187 0.708983 4.62474 0.543969 5.3673C0.451149 5.73858 0.420208 6.10986 0.389268 6.48114L0.368645 7.03806L0.430522 7.67748C0.471776 7.27526 0.533655 6.9143 0.647101 6.6049C0.739921 6.28518 0.873999 5.96547 0.997759 5.66638C1.10089 5.39824 1.20402 5.15072 1.38966 4.94445C1.23496 5.17134 1.13183 5.41886 0.997759 5.66638C0.884312 6.02735 0.812112 6.42957 0.781172 6.8421C0.750232 7.03806 0.781172 7.27527 0.781172 7.50216C0.781172 7.73937 0.791488 7.96626 0.832741 8.18284C0.781175 8.36848 0.946192 8.89446 1.25559 8.96665C1.55468 10.1217 2.53444 11.0499 3.10167 11.9781C3.14292 12.0297 3.16355 12.1535 3.18418 12.3082C3.66891 12.8032 4.17426 13.257 4.68993 13.7005C5.41186 14.309 6.13379 14.9071 6.8351 15.495C7.53641 16.0932 8.21709 16.6398 8.72244 17.2689C8.99059 17.5989 9.24842 17.9392 9.47531 18.3002L9.81565 18.8365C9.97035 19.084 10.1251 19.3728 10.2694 19.6513C10.9398 19.6513 11.012 20.301 11.208 21.0539C11.2286 21.1261 11.2389 21.3014 11.2595 21.4252L11.2801 21.6314V21.7346V21.9305V22.7556L11.2389 23.3537V23.6528L11.2183 23.8075L11.2698 23.56L11.4761 22.4668L11.5586 21.8996L11.6927 20.9404H11.703L11.8061 20.9095C11.8783 20.8889 11.9505 20.8785 12.0227 20.8682C11.9505 20.8682 11.8783 20.8889 11.8164 20.8992L11.7236 20.9301H11.703V20.9404L11.5895 21.7552L11.5586 21.9924C11.5174 22.3121 11.4555 22.6112 11.4039 22.9103C11.2389 23.921 11.3317 22.9928 11.3317 22.7556C11.3523 22.3534 11.3523 22.1883 11.3523 21.9305C11.3523 21.6933 11.3523 21.4458 11.3523 21.3633L11.3111 20.992C11.2492 20.5898 11.1667 20.301 11.0945 20.0432C11.012 19.7957 10.9604 19.5275 10.7851 19.4347C10.682 19.3522 10.6304 19.1768 10.5582 19.0015C10.486 18.8262 10.3932 18.6406 10.3004 18.4755C10.1147 18.1558 9.86722 17.8052 9.58876 17.4648C9.02153 16.7532 8.27897 16.1757 7.53641 15.6084C7.1445 15.3506 7.10325 14.9793 6.77322 14.6699C7.59829 14.9484 8.34085 15.495 9.01121 16.1963C9.66095 16.9182 10.1457 17.7845 10.6717 18.5271C10.9914 19.0221 11.2905 19.5894 11.5689 20.2907C11.6308 20.466 11.703 20.6413 11.7339 20.8476C11.7339 20.8682 11.7339 20.8889 11.7339 20.9095C11.7546 20.8785 11.7649 20.8682 11.7752 20.8579L11.868 20.7548L12.0536 20.5588C12.3012 20.2907 12.5487 20.0844 12.8271 19.8472C13.9616 18.7127 14.9826 17.6298 15.7046 16.4954C16.2924 15.5466 17.2103 14.9793 18.0251 14.5565C17.9013 14.8865 17.4785 15.3093 17.2619 15.5156C16.2924 16.4748 15.3333 17.4442 14.3948 18.4446L12.8581 20.1154C12.5693 20.3113 12.3115 20.4248 12.0846 20.6207L11.9093 20.7548L11.8268 20.827L11.7855 20.8579L11.7649 20.8785H11.7546V20.8889C11.7339 21.0229 11.7958 20.5898 11.7133 21.1879C11.6927 21.3736 11.6514 21.5592 11.5999 21.7449C11.5689 21.9099 11.5792 21.7758 11.5689 21.7139V21.5077C11.5586 21.2395 11.5277 21.0745 11.507 20.8785L11.5277 21.2189C11.5277 21.3323 11.538 21.4561 11.538 21.6417V21.8996C11.538 21.8996 11.538 22.013 11.538 22.0027L11.5792 21.848L11.6514 21.518L11.6721 21.3426L11.7339 20.8992H11.7442C11.8577 20.796 11.9711 20.7239 12.0949 20.6517C12.2187 20.5795 12.3424 20.5176 12.4868 20.4763C12.559 20.4557 12.6312 20.4351 12.724 20.4248C12.7653 20.4248 12.8065 20.4248 12.8478 20.4041L12.9612 20.2907C13.5388 19.6925 14.106 19.115 14.6732 18.5271C15.6633 17.5267 16.6534 16.5366 17.7776 15.6703C16.6534 16.8873 15.2714 17.8361 14.4773 19.2387C14.6114 19.1872 14.7454 19.1253 14.8692 19.0531C15.6736 18.3002 16.4884 17.568 17.3238 16.8563C17.4888 16.5573 17.6538 16.2582 17.8188 15.9694C18.0044 15.6291 18.2107 15.3093 18.4376 14.9999C18.7161 14.639 18.9739 14.2986 19.2317 13.9583C19.7577 13.2467 20.2837 12.5041 20.7478 11.6894C21.2119 10.8746 21.6451 9.98767 21.8823 8.98728C22.1091 7.9972 22.1504 6.82148 21.6554 5.73858C21.5729 5.57356 21.4078 5.34667 21.2222 5.18166C21.0366 5.04759 20.82 4.87226 20.624 4.71756C20.7994 4.97539 20.9541 5.20228 21.1088 5.50137C21.2738 5.81077 21.3872 6.13048 21.4697 6.46051C21.6141 7.12056 21.6038 7.7703 21.5419 8.3891C21.6657 7.89406 21.7894 7.39903 21.8823 6.87305C22.1195 8.22409 21.511 9.14198 21.2016 10.2249C21.3356 9.61639 21.4697 9.0079 21.5419 8.3891C21.3356 9.12135 21.0675 9.84329 20.7168 10.5033C20.8612 9.78141 21.1603 9.1626 21.3357 8.4613C21.511 7.7703 21.5522 6.94524 21.0778 6.26456C21.2016 6.57396 21.2428 6.90398 21.2635 7.21338C21.2325 6.89367 21.1809 6.56364 21.0675 6.24393V6.26456C20.9025 5.77983 20.5828 5.38793 20.2837 5.06821C19.9743 4.72787 19.6236 4.42878 19.273 4.2122C19.8505 4.75881 20.2321 5.43949 20.5003 6.10986C20.7478 6.79054 20.7375 7.49184 20.6756 8.22409C20.655 8.4613 20.6343 8.70882 20.5931 8.95634C20.624 8.69851 20.6447 8.4613 20.6756 8.22409C20.7169 7.38871 20.6034 6.55333 20.1702 5.87265C19.7165 5.1404 19.2317 4.40816 18.5407 3.93374C17.8601 3.45933 16.9628 3.25307 16.0862 3.2015C15.1992 3.19118 14.3123 3.37683 13.4666 3.64497L13.1572 3.78936C13.2912 3.85124 13.4253 3.91312 13.5491 3.98531C14.2298 3.75842 14.9414 3.58309 15.6324 3.52121C15.983 3.50059 16.3234 3.50059 16.6534 3.55215C17.004 3.60372 17.3444 3.68623 17.6538 3.79967C18.2726 4.02657 18.747 4.4391 19.1286 4.96508C19.4896 5.48074 19.9021 6.17174 19.9949 6.64615H19.9846Z" fill="white"/>
</g>
</g>
<path d="M12.1052 5.87262C12.1052 5.87262 10.4448 3.39742 7.78392 3.71713C5.12309 4.03685 3.43171 5.33633 3.43171 8.06936C3.43171 10.8024 8.30991 14.1439 9.42375 15.4331C10.7026 16.8976 11.5586 18.7643 11.4761 18.8674C11.3936 18.9705 14.7454 15.1752 16.179 13.7417C17.9426 11.9781 19.4174 8.91505 18.2623 7.09991C17.3238 5.63541 16.6224 5.23319 15.3023 5.09912C13.9822 4.96505 12.1052 5.87262 12.1052 5.87262Z" fill="white"/>
<g opacity="0.8">
<path d="M13.6935 3.7481C14.1885 3.55215 14.8073 3.38714 15.4777 3.38714C16.3131 3.36651 17.2825 3.54184 18.0663 4.03688C18.4685 4.27409 18.8295 4.58349 19.1492 4.92383C19.4896 5.29511 19.6649 5.50137 19.964 5.94484C20.5209 6.7596 20.8097 7.74968 20.7787 8.75007C20.7581 9.80203 20.5209 10.5755 20.2218 11.3387C19.603 12.8135 18.7161 14.0202 17.5713 15.0721C17.5919 15.0928 17.6022 15.1134 17.6022 15.1443C17.6125 15.2784 17.53 15.4331 17.3856 15.5156L16.2099 16.2994L15.9727 16.516L15.6943 16.7842L15.0136 17.4751C14.5701 17.9392 14.1266 18.4033 13.6935 18.8571C14.3948 18.1352 15.0961 17.4133 15.8696 16.7016C16.0243 16.5469 16.2099 16.516 16.2924 16.6191C16.3543 16.7326 16.3543 16.8667 16.1171 17.1039C15.5808 17.6608 15.0445 18.228 14.4979 18.7953C14.2298 19.0634 13.9719 19.4037 13.6832 19.61C13.3428 19.5894 13.0025 19.3419 12.7446 19.2387C12.229 19.0118 11.8783 18.9396 11.5895 18.9293H11.4864H11.4555C11.4967 18.5168 11.1358 22.4771 11.2801 20.8167L11.2492 21.1673C11.2183 21.6108 11.1358 22.1987 11.0739 22.704C11.0429 23.0031 11.012 23.1165 10.9914 23.3125L10.9089 23.8385L10.8264 24.3541V24.416C10.8264 24.416 10.816 24.3954 10.816 24.3748V24.2819V24.0963C10.816 23.6322 10.8161 23.1578 10.8264 22.6731C10.8264 22.2502 10.8367 21.8274 10.847 21.3942C10.847 21.1467 10.8264 20.8889 10.816 20.631C10.816 20.3423 10.7851 20.2597 10.7748 20.0741C10.7542 19.9194 10.7439 19.7338 10.7232 19.61C10.5995 19.0531 10.4654 18.6509 10.321 18.2899C10.2488 18.1043 10.1663 17.9392 10.0941 17.7742L9.98067 17.537C9.91879 17.4958 9.96004 17.2689 9.75378 17.4855L9.28967 17.8464C9.21748 17.898 9.12467 17.9805 9.06279 18.0114L8.98028 17.8877C8.86683 17.7227 8.75338 17.5473 8.62962 17.3926C8.50586 17.2379 8.3821 17.0729 8.24803 16.9285L8.05207 16.7016L7.93863 16.6088C7.31983 16.1138 6.36069 15.5053 5.48406 14.9174C4.5868 14.309 3.6586 13.6798 2.72008 12.8754C2.48288 12.6691 2.24567 12.4732 2.00846 12.2257C1.77126 11.9988 1.53405 11.7409 1.29684 11.4419C0.843053 10.9159 0.317079 10.0392 0.0386194 9.10072C-0.00263389 8.95634 -0.0129516 8.7707 0.0179884 8.68819C0.0489284 8.58506 0.100498 8.60568 0.141751 8.73975C0.378958 9.69889 0.977132 10.6065 1.47217 11.1634C1.98784 11.7513 2.51381 12.205 3.02948 12.5969C4.06081 13.3911 5.09215 14.0099 6.09254 14.6287C6.59789 14.9381 7.08262 15.2475 7.56735 15.5466C7.80455 15.7013 8.03145 15.856 8.23771 16.0003C8.34085 16.0725 8.42335 16.1447 8.52649 16.2272C8.66056 16.3613 8.79464 16.4954 8.9184 16.6398C9.04216 16.7842 9.16592 16.9285 9.27936 17.0832L9.45469 17.3101C9.56814 17.2689 9.70221 17.1967 9.81565 17.1451L10.0013 17.0626C10.0735 17.011 10.0632 17.1142 10.0941 17.1245L10.2282 17.3514C10.3107 17.5061 10.3932 17.6608 10.4757 17.8361C10.6407 18.1661 10.7851 18.5271 10.9192 19.0221C10.9501 19.1768 10.9914 19.249 11.012 19.4656L11.0533 19.7544L11.0739 19.9091V20.1463L11.1255 21.0745V21.3117C11.1255 21.3117 11.177 21.1261 11.1976 21.0436C11.2389 20.8476 11.2801 20.6517 11.3214 20.301C11.342 20.1566 11.3627 20.0019 11.373 19.8782V19.7853L11.4658 18.9087L11.4864 18.8984L11.5586 18.8468L11.703 18.754L12.0021 18.5787C11.8577 18.6406 11.7133 18.7334 11.5792 18.8262L11.4761 18.8984L11.3936 19.7544C11.3936 19.8163 11.373 19.9091 11.3627 19.9916C11.342 20.1463 11.3111 20.3216 11.2905 20.3938L11.2183 20.6826C11.2183 20.6826 11.2183 20.7135 11.2183 20.6723V20.5898L11.208 20.4351L11.177 19.8369C11.1461 19.0221 11.0533 18.7746 10.9604 18.424C10.8676 18.1146 10.7645 17.8567 10.6613 17.6195C10.5995 17.5783 10.5066 17.4648 10.4138 17.2998C10.3107 16.6913 9.58876 17.1554 9.3825 16.5469C9.3825 16.5882 9.37218 16.6191 9.35156 16.6398C9.27936 16.7326 9.11435 16.6398 8.96996 16.4541C8.86683 16.3304 8.74307 16.1757 8.66057 16.0932C8.57806 16.0107 8.51618 15.9385 8.42336 15.856C8.24803 15.7013 8.0727 15.5362 7.87675 15.3712L6.69072 14.3605C6.69072 14.3605 6.64946 14.3296 6.63915 14.309C5.58719 13.5251 4.53523 12.6898 3.55546 11.6275C3.07073 11.0706 2.61695 10.493 2.23536 9.66796C1.86408 8.8532 1.8022 7.80124 1.87439 7.01743C1.94658 6.18205 2.22504 5.24354 2.78196 4.4391C3.32857 3.63466 4.12269 3.00554 4.90651 2.61364C5.70063 2.21142 6.49477 1.98452 7.25795 1.85045L7.54672 1.79888L7.90769 1.76795C8.1449 1.73701 8.39241 1.737 8.63993 1.74732C9.12466 1.74732 9.6197 1.85045 10.0735 1.98452C10.1869 1.98452 10.3416 2.0464 10.3932 2.10828C10.4654 2.18048 10.4241 2.23204 10.321 2.22173C10.3107 2.26298 10.321 2.32487 10.2798 2.32487C9.60939 2.20111 8.9184 2.19079 8.27897 2.29392C7.59829 2.428 7.1445 2.61364 6.61852 2.83022C5.61813 3.27369 4.56617 3.87186 3.81329 4.86194C3.30794 5.54262 3.02948 6.35738 2.9676 7.13088C3.18418 6.34706 3.68954 5.66638 4.26708 5.33636C4.81369 4.5938 5.66969 4.06782 6.56695 3.80998C7.44359 3.55215 8.45429 3.4387 9.28967 3.8203L9.23811 3.73779C9.39281 3.77904 9.51657 3.89249 9.48563 3.98531C9.465 4.07813 9.33093 4.11938 9.17623 4.08844C8.39242 4.00594 7.66017 4.23283 6.90729 4.50098C6.18536 4.77944 5.54594 5.17134 5.14372 5.66638C4.7415 6.17174 4.54554 6.74928 4.5146 7.42996C4.47335 8.16221 4.5868 8.58506 4.95808 9.17292C5.70064 10.3383 6.96918 11.4522 8.24803 12.5041C8.90808 13.061 9.55782 13.5355 10.3107 14.2368L10.6717 14.608L10.9089 14.8762C11.0636 15.0515 11.1976 15.2372 11.3214 15.4125C11.4245 15.5569 11.507 15.6909 11.5895 15.8353C11.6308 15.9075 11.6617 15.9797 11.6927 16.0519C11.6927 16.0725 11.703 16.0932 11.6927 16.1138C11.6927 16.1138 11.7236 16.0828 11.7339 16.0622L11.8268 15.9488C12.064 15.66 12.2909 15.3815 12.5177 15.1237C12.7446 14.8659 12.9715 14.608 13.2191 14.3605L13.8791 13.6798L14.6217 12.9373C14.7661 12.7929 14.9517 12.6794 15.0961 12.6485C15.2302 12.6279 15.3539 12.6485 15.4364 12.731C15.6221 12.896 15.5292 13.257 15.2302 13.5664C14.7661 14.0408 14.2813 14.5771 13.8791 15.0206L12.8478 16.2272L11.7855 17.5164L11.6514 17.6814L11.5792 17.7639C11.5792 17.7639 11.5277 17.8361 11.538 17.7742C11.507 17.6505 11.4452 17.537 11.3936 17.4236C11.2801 17.1967 11.1461 16.9698 11.0017 16.7429C10.4654 15.9385 9.94973 15.2165 8.9184 14.3915C9.23811 14.6905 9.6197 15.1031 9.82597 15.4331C10.0632 15.7838 10.2798 16.1654 10.486 16.5882C10.8573 17.0936 11.1976 17.6195 11.4348 18.2177C11.4658 18.2693 11.4864 18.4137 11.4967 18.4137L11.6617 18.228L11.9918 17.8671C12.2083 17.6402 12.4352 17.403 12.6621 17.1657C13.2087 16.6191 13.7657 16.0725 14.3535 15.5053C14.962 14.9278 15.5705 14.3502 16.1687 13.783C17.365 12.6382 18.3551 11.0809 18.4479 9.32761C18.4892 8.48192 18.1901 7.72905 17.6435 7.29589C17.2103 6.9143 16.7668 6.64615 16.3337 6.57396C15.8902 6.49145 15.4983 6.6049 15.127 6.74928C14.6835 6.9968 13.9926 7.4609 13.3325 7.96626C13.2603 8.03845 13.1262 8.05908 13.1056 7.97657C13.0644 7.95594 13.0437 7.91469 13.054 7.87344C13.0334 7.84249 13.054 7.80124 13.085 7.75999C13.7347 7.1515 14.5392 6.56364 15.1786 6.30581C15.6014 6.17173 16.0758 6.08923 16.5709 6.2233C17.0556 6.34706 17.5197 6.67709 17.9735 7.08962C18.5407 7.56404 18.8604 8.34785 18.8914 9.21417C18.9326 10.163 18.6748 11.0912 18.2829 11.9163C17.891 12.7516 17.3547 13.4942 16.705 14.1543C16.0965 14.7524 15.488 15.3506 14.8589 15.9694C14.5082 16.3201 14.1576 16.6707 13.7966 17.0214L13.2809 17.537C13.1159 17.7227 12.92 17.7639 12.7446 17.8671C12.559 17.9702 12.3837 18.0939 12.2187 18.2177C12.4971 18.0218 12.7962 17.9496 13.1675 17.8774C13.5078 17.7124 13.8482 17.403 14.2195 17.1451L15.1992 16.1447L16.0037 15.3712L16.7978 14.639C17.0659 14.4121 17.396 14.0821 17.6641 13.7933C18.747 12.5557 19.6752 11.1428 19.9227 9.18323C20.0052 8.18284 19.799 7.1515 19.1905 6.36769C18.9326 6.01704 18.747 5.80046 18.4582 5.51169C18.1798 5.23323 17.8807 4.97539 17.5403 4.77944C16.8803 4.3669 16.0862 4.22252 15.3539 4.19158C14.8795 4.16064 14.4051 4.23283 13.9822 4.31534C13.6625 4.40816 13.3428 4.37722 13.2294 4.23283C13.1262 4.08844 13.2913 3.85124 13.6316 3.7481H13.6935ZM4.58679 10.7405C5.01995 11.0912 5.41187 11.4109 5.78314 11.7203C5.07153 11.0293 4.39084 10.2971 3.92674 9.43075C3.4317 8.57474 3.42139 7.52278 3.67922 6.55333C3.39045 7.2237 3.25637 8.02814 3.44201 8.79132C3.63797 9.55451 4.09175 10.1939 4.57648 10.7509L4.58679 10.7405Z" fill="white"/>
<path d="M5.515 8.21374C5.515 8.3375 5.515 8.45094 5.58719 8.58502C5.62844 8.73972 5.7522 8.91504 5.85534 9.08006C6.11317 9.4204 6.45351 9.74011 6.87636 9.967C6.91761 9.98763 6.95886 9.98763 6.96917 9.94638C6.97949 9.90512 6.95886 9.86387 6.90729 9.83293C6.50507 9.61635 6.17505 9.31726 5.93784 8.99755C5.84502 8.84285 5.72126 8.66752 5.69032 8.53345C5.63875 8.39938 5.63876 8.30656 5.63876 8.19311C5.63876 8.17248 5.61813 8.15186 5.57687 8.15186C5.54593 8.15186 5.51499 8.17248 5.50468 8.20342L5.515 8.21374Z" fill="white"/>
<path d="M7.51578 10.2661C8.20677 10.6683 8.90808 11.0809 9.65064 11.5656C10.0219 11.8131 10.3932 12.0606 10.8057 12.37C11.0017 12.5144 11.2389 12.7104 11.4555 12.896L11.8268 13.2467H11.8577C12.0021 13.2157 11.9299 13.4117 12.064 13.4014C12.1155 13.4117 12.1774 13.4117 12.2702 13.3911H12.3012C12.3012 13.3911 12.3012 13.3911 12.3321 13.3704L12.4352 13.2673L12.8581 12.8754L13.7141 12.0709L14.1473 11.6687C14.2401 11.5759 14.3329 11.5037 14.4257 11.4006C14.601 11.2149 14.7867 11.0087 14.9311 10.7921C15.2405 10.3589 15.4983 9.86389 15.6117 9.42042C15.6427 9.27603 15.6736 9.14196 15.6736 9.0182C15.6839 8.88412 15.6736 8.80162 15.6427 8.78099C15.5911 8.7088 15.4983 8.66754 15.3539 8.68817C15.3436 8.68817 15.292 8.7088 15.2508 8.72943C15.1992 8.75005 15.1786 8.76037 15.1889 8.75005C15.292 8.71911 15.3642 8.73974 15.4158 8.77068C15.4674 8.82225 15.4364 9.13165 15.3642 9.37917C15.2095 9.92577 14.8279 10.5446 14.3741 11.0499C14.2607 11.1737 14.1473 11.2974 14.0235 11.3903L13.4872 11.8853L12.3527 12.9579L12.2187 13.092C12.2187 13.092 12.1155 13.1951 12.1258 13.1745H12.1052C12.1052 13.1745 12.0743 13.1642 12.064 13.1538C12.0433 13.1435 12.033 13.1229 12.0227 13.1126C11.9918 13.0507 12.0536 13.0713 11.9608 13.1332C11.9402 13.1332 11.9711 13.1642 11.9093 13.1126L11.5277 12.7516C11.3008 12.5557 11.0636 12.3597 10.8676 12.2256C10.4551 11.9162 10.0838 11.6584 9.7022 11.4109C8.95964 10.9262 8.24803 10.5033 7.55703 10.1114C7.51578 10.0908 7.47452 10.1114 7.46421 10.132C7.46421 10.1733 7.49515 10.2249 7.52609 10.2455L7.51578 10.2661Z" fill="white"/>
<path d="M14.6423 11.2974C14.5288 11.4521 14.4154 11.6068 14.2916 11.7409L13.7347 12.3597C13.3634 12.7723 12.9922 13.1848 12.6106 13.5973C12.4043 13.8242 12.2187 13.9583 12.064 13.9274C12.0227 13.917 11.9918 13.9067 11.9608 13.9067C11.9505 13.9067 11.9299 13.9067 11.9196 13.9067L11.8989 13.8345C11.868 13.752 11.8268 13.7314 11.7339 13.7417C11.6721 13.7417 11.5895 13.7417 11.4967 13.7211L11.3523 13.6798C11.2286 13.587 10.9604 13.3292 10.7954 13.226C10.0529 12.6691 9.45468 12.2463 8.88745 11.6894C8.85651 11.6481 8.79463 11.6378 8.76369 11.6481C8.74307 11.6687 8.74306 11.7203 8.78432 11.7615C9.38249 12.401 10.0322 12.8548 10.8573 13.5354L11.177 13.8242L11.2698 13.8758L11.4348 13.9686C11.538 14.0202 11.6205 14.0717 11.6927 14.1233C11.7546 14.1749 11.8061 14.2264 11.8474 14.2883C11.868 14.3089 11.8783 14.3914 11.8989 14.3811L11.9918 14.278C12.1155 14.1542 12.2393 14.0717 12.394 13.948L12.6312 13.7623L12.6931 13.7108L12.8993 13.5045L13.3222 13.061C13.611 12.7516 13.8894 12.4525 14.1782 12.1328L14.3948 11.8956L14.5288 11.7306C14.6217 11.6275 14.6939 11.4934 14.7764 11.3696C14.8073 11.3284 14.797 11.2768 14.7764 11.2562C14.7454 11.2356 14.6939 11.2562 14.6732 11.2871L14.6423 11.2974Z" fill="white"/>
<path d="M10.4448 19.5791C10.3004 18.919 10.1147 18.4652 9.93941 18.0011L9.80534 17.6711L9.78471 17.6299L9.7022 17.7021L9.52688 17.8568L9.18654 18.1558L8.8462 18.4549L8.76369 18.5271C8.76369 18.5271 8.74307 18.4962 8.73276 18.4859L8.68119 18.393L8.47492 18.0321C8.33054 17.8052 8.18615 17.5783 8.02113 17.372C7.85612 17.1658 7.67048 16.9286 7.62923 16.9079C7.48484 16.7635 7.27857 16.5985 7.05168 16.4232C6.11316 15.7219 4.99933 15.0412 3.86486 14.474C3.80298 14.443 3.76172 14.474 3.77204 14.5255C3.77204 14.5771 3.83392 14.6493 3.8958 14.6699C4.99933 15.2269 6.07191 15.9282 6.94855 16.6295C7.06199 16.7223 7.15481 16.8048 7.24763 16.877C7.34045 16.9595 7.42296 17.0317 7.47453 17.0936L7.52609 17.1451L7.63954 17.2895L7.88706 17.6092C8.04176 17.8361 8.19646 18.0527 8.34084 18.3002L8.54712 18.6715L8.59868 18.7643V18.785L8.66056 18.7437L8.75338 18.6612L9.11434 18.3209L9.47531 17.9805L9.66095 17.8155C9.66095 17.8155 9.73314 17.733 9.74346 17.7536L9.76409 17.7949L9.89816 18.1249C10.0735 18.589 10.2488 19.0531 10.4035 19.7132C10.4654 19.94 10.517 20.1773 10.5376 20.1463C10.5479 20.1051 10.5376 19.7957 10.4654 19.5791H10.4448Z" fill="white"/>
<path d="M4.7415 8.00751C4.77244 8.37879 4.87557 8.68819 5.08184 9.08009C5.30873 9.472 5.58719 9.87422 5.93784 10.2661C6.61852 11.0499 7.46422 11.7512 8.3821 12.3804C8.7637 12.7516 9.16592 13.1126 9.57845 13.4942L10.2385 14.0924C10.4035 14.2574 10.5685 14.4224 10.7335 14.5874C10.7851 14.6596 10.8779 14.6493 10.9295 14.5668C10.9811 14.4843 10.9914 14.3811 10.9501 14.3296L10.8367 14.1852L10.5066 13.8139C10.2798 13.587 10.0529 13.3704 9.84659 13.1848C9.87753 13.1848 9.89816 13.1539 9.91879 13.1332C10.1147 13.2879 10.321 13.4633 10.5376 13.6489C10.6407 13.7314 10.7542 13.8655 10.8676 13.9686L11.0326 14.1336C11.1667 14.2677 11.2905 14.4121 11.3936 14.5462C11.507 14.6905 11.5999 14.8349 11.6824 14.9793C11.7236 15.0515 11.7649 15.1237 11.7958 15.2062C11.7958 15.2268 11.8061 15.2475 11.8061 15.2578L11.8474 15.2062L11.9402 15.0928C11.9402 15.0928 11.9918 14.969 11.9918 14.8762C11.9918 14.7834 11.9711 14.7318 11.9505 14.7524L11.8783 14.8349C11.8783 14.8349 11.8474 14.8762 11.8474 14.8659C11.8474 14.8452 11.8474 14.8246 11.8371 14.8143C11.8164 14.7421 11.7752 14.6802 11.7443 14.6184C11.6721 14.4946 11.5896 14.3811 11.4864 14.2677C11.3936 14.1543 11.2801 14.0408 11.1461 13.9274L10.8573 13.6489C10.7335 13.5251 10.6304 13.4529 10.517 13.3498C10.2901 13.1539 10.0941 13.0095 9.87754 12.8445C9.83629 12.7826 9.7744 12.7104 9.70221 12.6588C8.37179 11.6378 7.10325 10.7612 6.12348 9.71952C5.79345 9.35855 5.49437 8.95633 5.38093 8.63662C5.25717 8.33753 5.22622 8.11064 5.27779 7.75999C5.40155 6.93492 5.68001 6.57395 6.15443 6.2233C6.53602 5.93453 7.16513 5.56325 7.93863 5.42917C8.44398 5.34667 8.81527 5.52199 9.32062 5.55293C10.0116 5.59419 10.847 5.86233 11.5895 6.2233C11.6308 6.24393 11.6721 6.23361 11.6721 6.18205C11.6927 6.16142 11.6514 6.09954 11.6102 6.07891C10.847 5.68701 9.99098 5.37761 9.3103 5.46011C9.04216 5.34667 8.78432 5.2951 8.52649 5.26416C8.24803 5.26416 8.06239 5.26416 7.67048 5.35698C6.9898 5.51168 6.38132 5.77983 6.07192 6.14079C5.73158 6.28518 5.43249 6.43988 5.17466 6.73897C4.91682 7.01743 4.73119 7.55372 4.75181 8.00751H4.7415Z" fill="white"/>
</g>
<path d="M12.4146 6.92461C12.4146 6.92461 11.4761 5.51168 9.96004 5.69732C8.44398 5.88296 7.48484 6.61521 7.48484 8.17252C7.48484 9.75046 10.2591 11.6275 10.8986 12.3597C11.6308 13.1951 12.1155 14.2574 12.064 14.309C12.0124 14.3605 13.9204 12.2153 14.7454 11.3903C15.7458 10.3899 16.5915 8.64693 15.9315 7.6156C15.3952 6.78022 15.0033 6.55333 14.2504 6.48114C13.4975 6.40894 12.4352 6.91429 12.4352 6.91429L12.4146 6.92461Z" fill="white"/>
<g opacity="0.8">
<path opacity="0.8" d="M11.7752 7.09994C11.8268 6.97618 11.8989 6.70804 11.9299 6.56365C12.0949 6.4502 12.3424 6.63585 12.6312 6.78023C12.7859 6.78023 12.9612 6.64616 13.0747 6.5224C13.1984 6.39864 13.1984 6.20269 13.1262 6.17175C12.7137 5.60451 11.5999 5.4395 11.2492 5.83141C11.1151 5.85203 11.342 6.39864 11.507 6.65647C11.6308 6.65647 11.7649 6.6771 11.899 6.69773" fill="white"/>
<path d="M7.68079 11.9885C7.77361 12.0091 7.86644 12.0297 7.95926 12.0401C7.7633 11.6172 7.68079 11.1222 7.46421 10.524C7.35077 10.3177 7.09294 10.689 7.03106 10.9984C6.42257 10.6065 5.9069 10.6168 5.38092 10.163C6.17505 11.0912 7.04137 11.3491 7.72205 11.6997L7.68079 11.9988V11.9885Z" fill="white"/>
<path opacity="0.7" d="M14.8795 11.1118C14.5804 11.2562 14.271 11.4109 13.9616 11.5656C13.5491 11.8338 13.2087 12.0504 12.9097 12.2669C12.7653 12.3804 12.6209 12.4835 12.4868 12.6073L12.2909 12.7929L12.198 12.896C12.198 12.896 12.1362 12.9889 12.1362 12.9167C11.8268 12.2257 11.4452 11.9266 10.2488 11.6172C10.2076 11.6378 10.156 11.6481 10.1044 11.6378C10.6407 11.9885 11.1151 12.3494 11.4452 12.7517C11.6205 12.9476 11.7649 13.1539 11.8989 13.3601C11.9608 13.4633 12.0227 13.5767 12.0743 13.6902C12.0743 13.7211 12.0949 13.752 12.0949 13.783C12.0949 13.783 12.1362 13.7314 12.1568 13.7108L12.2909 13.5458C13.0128 12.6898 13.6522 12.1019 14.8382 11.4006C14.9208 11.4212 15.0342 11.2356 15.1476 11.0396C15.0445 11.0396 14.962 11.0706 14.8898 11.1222L14.8795 11.1118Z" fill="white"/>
<path opacity="0.8" d="M16.3852 6.08922C16.3852 6.26454 16.344 6.57394 16.344 6.57394C16.5193 6.6977 16.6637 6.82146 16.7772 6.95554C16.8906 7.0793 17.0762 7.37838 17.1484 7.59496C17.3238 8.07969 17.2928 8.55411 17.2 8.95633C16.9937 9.77108 16.5399 10.3589 16.0552 11.0087C15.9314 11.1427 15.4674 10.988 15.1373 11.0087C15.0342 11.2149 14.9104 11.3903 14.8279 11.3696C13.6419 12.071 13.0025 12.6588 12.2805 13.5148L12.1465 13.6798C12.1465 13.6798 12.0949 13.752 12.0846 13.752C12.0846 13.7211 12.0743 13.6901 12.064 13.6592C12.0124 13.5458 11.9608 13.4426 11.8886 13.3292C11.7546 13.1229 11.6102 12.9166 11.4348 12.7207C11.1048 12.3082 10.6304 11.9575 10.0941 11.6069C9.97035 11.5965 9.87753 11.514 9.98067 11.5243C9.98067 11.5243 9.28968 11.2768 9.36187 10.854C9.59908 11.184 9.85691 11.3696 10.2694 11.5656H10.2488C11.4452 11.8853 11.8267 12.1947 12.1361 12.8857C12.1361 12.9682 12.1671 12.9063 12.198 12.8651L12.2909 12.7619L12.4868 12.5763C12.6209 12.4629 12.7549 12.3494 12.9096 12.236C13.2087 12.0194 13.5491 11.8028 13.9616 11.5347C13.2294 11.8544 12.7549 11.9472 12.4249 12.0709C12.3424 12.1019 12.2599 12.1431 12.1877 12.1844C12.1671 12.0297 12.1155 11.9059 12.064 11.8028C11.9608 11.5965 11.8267 11.4521 11.6205 11.3387C11.5483 11.3284 11.4761 11.2974 11.3936 11.2665C11.3523 11.2562 11.3008 11.2253 11.2801 11.2149C11.2079 11.1737 11.1461 11.1221 11.0842 11.0809C10.8264 10.9055 10.5995 10.7302 10.4138 10.5652C9.96004 9.93609 9.25873 9.81233 9.12466 9.08008C9.06278 8.72943 9.26904 8.33753 9.51656 8.09001C9.57844 8.03844 9.65064 7.98687 9.7022 7.95593C9.73314 7.9353 9.7022 7.95593 9.66095 7.97656L9.5475 8.01781C9.46499 8.04875 9.38249 8.06938 9.28967 8.09001C9.09371 8.12095 9.05246 8.15188 8.88745 8.15188H8.83589H10.0941L10.1147 8.13126C10.1147 8.13126 10.1251 8.10032 10.1354 8.09001C10.1044 8.05907 9.72284 7.97656 9.6919 7.9353C9.44438 7.83217 9.47531 7.81155 9.53719 7.88374C9.57845 7.92499 9.66095 8.01781 9.74346 8.15188C9.76408 8.18282 9.78471 8.22408 9.80533 8.25502L9.78471 8.20345C9.78471 8.20345 9.76409 8.12095 9.75377 8.06938C9.74346 7.87343 9.80534 7.61559 9.97035 7.3887C10.0425 7.22369 10.1663 7.17212 10.2076 6.97616C10.2798 6.58426 10.1766 6.31611 10.5376 6.25423C10.4654 5.97577 10.1044 5.89327 10.1354 5.69731C10.3313 5.42917 10.6923 5.39822 10.9398 5.26415C10.7232 5.11976 10.4654 5.01663 10.1972 4.95475C10.0941 4.95475 10.0013 4.93412 9.90847 4.89287C9.73315 4.86193 9.5475 4.83099 9.40312 4.78974C9.36186 4.82068 9.33092 4.85162 9.33092 4.85162C9.07309 4.71754 8.8462 4.63504 8.60899 4.61441C8.40273 4.77942 7.80455 4.77943 7.74267 5.11977C7.72204 5.02695 7.68079 4.96507 7.61891 4.92381C7.46421 5.02695 7.30951 5.17133 7.1445 5.35697C6.96917 5.35697 6.58758 5.40854 6.40194 5.47042C6.29881 5.70763 6.22662 6.18204 6.22662 6.18204C5.99972 6.37799 5.78314 6.42956 5.57687 6.4605C5.50468 6.6977 5.48406 6.95554 5.52531 7.19274C5.2881 7.30619 5.08183 7.57434 4.95807 7.87342C4.91682 8.11063 4.92713 8.72943 4.92713 9.08008C4.98901 9.37917 5.09215 9.71951 5.21591 9.90515C5.27779 9.97734 5.33966 10.0702 5.39123 10.1424C5.91721 10.5961 6.43288 10.5858 7.04137 10.9777C7.10325 10.6683 7.36108 10.3074 7.47453 10.5033C7.69111 11.1118 7.77361 11.5965 7.96956 12.0194C8.32022 12.0709 8.66056 12.0606 8.87714 12.2153C8.87714 12.2153 8.85651 12.401 8.83589 12.5557L9.0009 12.6485C9.2381 12.6485 9.43406 12.6897 9.57845 12.7723C9.65064 12.8238 9.69189 12.8548 9.7744 12.9476C9.84659 13.061 9.91879 13.1848 9.97035 13.3395L10.0941 13.4839C10.0941 13.4839 10.1251 13.5561 10.1663 13.5354L10.3519 13.3704L10.7232 13.0404C10.8057 12.9476 10.7851 13.0404 10.8057 13.0404L10.847 13.1126C10.9604 13.2879 11.0636 13.4942 11.1564 13.7005C11.2389 13.8139 11.3214 13.917 11.3936 14.0305C11.507 14.0511 11.5792 14.5874 11.5999 15.1959C11.6205 15.3093 11.6411 15.5053 11.6514 15.7012C11.672 15.8456 11.6824 16.1963 11.6824 16.5057C11.6927 16.6604 11.6927 17.042 11.703 17.2895C11.703 17.3411 11.703 17.4648 11.703 17.4648L11.7339 17.4029C11.7546 17.3514 11.7649 17.3514 11.7855 17.2482C11.8474 16.6501 11.9196 16.0622 11.9608 15.5569V15.3815L12.0433 14.3399H12.064L12.1052 14.3193C12.229 14.2574 12.3424 14.2058 12.4249 14.1646C12.4971 14.1027 12.5693 14.0099 12.6209 13.8758C12.6003 13.9583 12.5796 14.0511 12.4971 14.1233C12.724 14.0305 12.9303 13.9995 13.1984 14.3811C13.3222 14.3502 13.4563 14.2986 13.4563 14.2986C13.5181 14.3914 13.5903 14.4121 13.6625 14.443C14.0854 13.7211 14.3535 12.9579 14.7042 12.5557C14.7764 12.37 14.4567 13.2776 14.9826 13.1229C15.6633 12.8032 15.6221 12.7001 16.1068 12.3082C16.2409 12.1947 16.3956 12.1019 16.5399 12.0091C16.6637 11.8853 16.7875 11.7512 16.87 11.5862C17.2309 10.8952 17.5403 10.1733 17.695 9.26572C17.7672 8.81194 17.7982 8.28596 17.6641 7.68778C17.5919 7.3887 17.4785 7.08961 17.3134 6.80084C17.1794 6.57395 17.1072 6.4605 16.9628 6.26455C16.7256 5.92421 16.3337 5.47042 15.7561 5.14039C15.4777 4.98569 15.1786 4.87224 14.9208 4.80005L14.5598 4.70723C14.4566 4.6866 14.3535 4.66598 14.1782 4.64535C13.5594 4.58347 13.1159 4.64535 12.6828 4.70723C12.2393 4.77942 11.9196 4.84131 11.4348 4.99601C12.2599 4.81037 12.8375 4.73817 13.7657 4.76911C13.8894 4.76911 14.0029 4.78974 14.1369 4.81037C14.2813 4.83099 14.4051 4.86193 14.4773 4.88256C14.6629 4.93413 14.8692 4.996 15.1064 5.09914C15.5808 5.28478 16.0862 5.67669 16.3543 6.05828L16.3852 6.08922Z" fill="white"/>
</g>
</svg>
