<svg width="24" height="25" viewBox="0 0 24 25" fill="none" xmlns="http://www.w3.org/2000/svg">
<path fill-rule="evenodd" clip-rule="evenodd" d="M13.849 9.34703L12 5.83203L10.151 9.34703C10.0204 9.60389 9.83131 9.82653 9.599 9.99703C9.36556 10.1684 9.09543 10.2831 8.81 10.332L5 11.079L7.66 14.26C8.02377 14.6587 8.19542 15.1963 8.13 15.732L7.624 19.832L11.132 18.132C11.4026 18.001 11.6993 17.9326 12 17.932C12.2821 17.9329 12.5599 18.0015 12.81 18.132L16.4 19.727L15.894 15.676C15.83 15.1415 16.002 14.6056 16.365 14.208L19 11.079L15.19 10.332C14.9042 10.2833 14.6337 10.1686 14.4 9.99703C14.1681 9.82641 13.9793 9.60379 13.849 9.34703Z" fill="#FFA500" stroke="#FFA500" stroke-width="1.5" stroke-linecap="round" stroke-linejoin="round"/>
</svg>
