<svg width="41" height="42" viewBox="0 0 41 42" fill="none" xmlns="http://www.w3.org/2000/svg">
<path fill-rule="evenodd" clip-rule="evenodd" d="M15.3716 3.11553L10.5528 7.93433H30.1279L25.3091 3.11553C24.7653 2.57178 24.7653 1.67178 25.3091 1.12803C25.8528 0.584277 26.7528 0.584277 27.2966 1.12803L34.1028 7.93428L34.1029 7.93433H34.9278C36.7278 7.93433 40.4966 7.93433 40.4966 13.0906C40.4966 15.0406 40.1028 16.3343 39.2403 17.1781C38.7355 17.6829 38.1401 17.9515 37.5141 18.0931L34.4966 33.8094C33.7654 37.6156 32.5466 41.0281 25.7591 41.0281H14.4529C7.74036 41.0281 6.24036 37.0344 5.65911 33.5656L3.1366 18.0906C2.52308 17.9461 1.93844 17.6762 1.44033 17.1781C0.577832 16.3343 0.184082 15.0218 0.184082 13.0906C0.184082 7.93433 3.95283 7.93433 5.75283 7.93433H6.57781L6.57786 7.93428L13.3841 1.12803C13.9279 0.584277 14.8279 0.584277 15.3716 1.12803C15.9154 1.67178 15.9154 2.57178 15.3716 3.11553ZM6.01067 18.2468L8.43411 33.0969C8.97786 36.4156 10.1029 38.2156 14.4529 38.2156H25.7591C30.5779 38.2156 31.1216 36.5281 31.7404 33.2656L34.624 18.2468H6.01067ZM5.75283 15.4343H35.3591C36.2028 15.4531 36.9903 15.4531 37.2528 15.1906C37.3841 15.0593 37.6653 14.6093 37.6653 13.0906C37.6653 10.9718 37.1403 10.7468 34.9091 10.7468H5.75283C3.52158 10.7468 2.99658 10.9718 2.99658 13.0906C2.99658 14.6093 3.29658 15.0593 3.40908 15.1906C3.67158 15.4343 4.47783 15.4343 5.30283 15.4343H5.75283ZM14.7341 31.2781C14.7341 32.0468 15.3716 32.6843 16.1404 32.6843C16.9091 32.6843 17.5466 32.0656 17.5466 31.2781V24.6218C17.5466 23.8531 16.9091 23.2156 16.1404 23.2156C15.3716 23.2156 14.7341 23.8531 14.7341 24.6218V31.2781ZM24.7653 32.6843C23.9965 32.6843 23.359 32.0468 23.359 31.2781V24.6218C23.359 23.8531 23.9965 23.2156 24.7653 23.2156C25.534 23.2156 26.1715 23.8531 26.1715 24.6218V31.2781C26.1715 32.0656 25.534 32.6843 24.7653 32.6843Z" fill="white"/>
</svg>
