<svg width="24" height="24" viewBox="0 0 24 24" fill="none" xmlns="http://www.w3.org/2000/svg">
<path d="M18.8944 6.16636L6.16643 18.8943C5.87652 19.1842 5.39568 19.1842 5.10577 18.8943C4.81586 18.6044 4.81586 18.1235 5.10577 17.8336L17.8337 5.1057C18.1236 4.81579 18.6044 4.81579 18.8944 5.1057C19.1843 5.39561 19.1843 5.87645 18.8944 6.16636Z" fill="#BE1622"/>
<path d="M5.10565 6.16636L17.8336 18.8943C18.1235 19.1842 18.6043 19.1842 18.8942 18.8943C19.1841 18.6044 19.1841 18.1235 18.8942 17.8336L6.16631 5.1057C5.87639 4.81579 5.39556 4.81579 5.10565 5.1057C4.81573 5.39561 4.81573 5.87645 5.10565 6.16636Z" fill="#BE1622"/>
</svg>
