<svg width="24" height="25" viewBox="0 0 24 25" fill="none" xmlns="http://www.w3.org/2000/svg">
<mask id="mask0_11_924" style="mask-type:luminance" maskUnits="userSpaceOnUse" x="0" y="0" width="24" height="25">
<path d="M18.6468 24.416C18.6468 24.416 26.938 13.1006 22.6286 3.91466C21.2047 0.877891 17.5883 -0.43258 14.5389 0.991298C11.4896 2.41518 10.1917 6.03157 11.6156 9.08094H11.5904C10.1665 6.05678 6.55011 4.7463 3.50074 6.17018C0.451374 7.59406 -0.846497 11.2105 0.577381 14.2598C4.88682 23.4457 18.8862 24.3152 18.8862 24.3152" fill="white"/>
</mask>
<g mask="url(#mask0_11_924)">
<path d="M9.92699 28.7002L7.23045 27.4654L19.2641 -0.59639L21.9607 0.638478L9.92699 28.7002Z" fill="#E30613"/>
<path d="M5.71873 27.1755L15.0936 -3.96077L17.954 -3.19213L8.59169 27.9442L5.71873 27.1755Z" fill="#E30613"/>
<path d="M5.1642 25.0712L2.46765 23.8364L14.5769 -4.42699L17.2735 -3.19212L5.1642 25.0712Z" fill="#E30613"/>
<path d="M16.4415 28.7254L13.7449 27.5032L25.0351 1.48273L27.7443 2.70499L16.4415 28.7254Z" fill="#E30613"/>
<path d="M1.37125 23.7103L9.7003 -3.79697L12.1574 -3.15433L3.84098 24.353L1.37125 23.7103Z" fill="#E30613"/>
<path d="M17.9287 29.6957L26.2452 2.18835L28.7149 2.83099L20.3859 30.3383L17.9287 29.6957Z" fill="#E30613"/>
<path d="M0.338035 25.235L-2.35851 24.0002L9.63735 -3.94818L12.3339 -2.71331L0.338035 25.235Z" fill="#E30613"/>
<path d="M-4.17294 23.6095L5.20198 -7.53937L8.07494 -6.77073L-1.29998 24.3656L-4.17294 23.6095Z" fill="#E30613"/>
<path d="M-4.97955 24.227L0.955372 -7.72838L3.2235 -7.47636L-2.71143 24.479L-4.97955 24.227Z" fill="#E30613"/>
<path d="M12.3716 27.2512L20.3731 -0.10495L23.2334 0.688893L15.232 28.045L12.3716 27.2512Z" fill="#E30613"/>
</g>
</svg>
