<svg width="23" height="25" viewBox="0 0 23 25" fill="none" xmlns="http://www.w3.org/2000/svg">
<path d="M12.5422 4.07679C12.5422 4.07679 10.4073 0.889966 6.98331 1.31281C3.55928 1.73566 1.38318 3.38579 1.38318 6.91295C1.38318 10.4401 7.65368 14.7305 9.08723 16.3806C10.7374 18.2679 11.8306 20.6606 11.7171 20.7947C11.6037 20.9288 15.9147 16.0506 17.7711 14.2045C20.04 11.9355 21.9376 8.00617 20.4422 5.66504C19.2356 3.7777 18.3383 3.26203 16.6469 3.09702C14.9555 2.93201 12.5319 4.0871 12.5319 4.0871L12.5422 4.07679Z" fill="#BE1622"/>
<g opacity="0.8">
<g opacity="0.8">
<path d="M21.6592 5.64435C22.1646 6.72725 22.113 7.90297 21.8861 8.89305C21.6489 9.89344 21.226 10.7804 20.7516 11.5951C20.2772 12.4099 19.7615 13.1525 19.2356 13.8641C18.9777 14.2044 18.7199 14.5448 18.4414 14.9057C18.2145 15.2151 17.998 15.5451 17.8226 15.8752C17.6473 16.1639 17.4823 16.4734 17.3173 16.7724L17.7092 16.4424C18.0805 16.133 18.4518 15.8236 18.823 15.5142C19.2046 15.2048 19.6687 14.7613 20.0503 14.3488C20.8238 13.4928 21.5045 12.5233 22.0408 11.4404C22.5668 10.3575 22.969 9.10963 22.9999 7.67608C22.9896 6.94383 22.8762 6.17033 22.5565 5.41746C22.4843 5.23182 22.3708 5.04618 22.278 4.87085L22.1233 4.6027L21.9995 4.42738C21.8345 4.19017 21.6592 3.95297 21.4632 3.71576C20.9579 3.15884 20.2978 2.54004 19.4212 2.13782C18.5446 1.7356 17.6473 1.64278 16.9151 1.65309C15.1309 1.65309 13.8314 2.27189 12.4288 2.77725C12.1194 2.90101 12.2019 3.22072 12.2534 3.37542C12.6144 3.4373 12.9135 3.55074 13.2023 3.68482C14.213 3.2104 15.2752 2.73599 16.5128 2.68443C17.111 2.68443 17.7092 2.72568 18.328 2.94226C18.9468 3.14853 19.514 3.56106 19.9369 4.02516C20.4835 4.68521 21.3601 5.00492 21.6592 5.65466V5.64435Z" fill="#BE1622"/>
<path d="M13.0991 3.66404L13.161 3.69498L13.4601 3.54028L13.0991 3.66404Z" fill="#BE1622"/>
<path d="M18.7303 3.00406C19.5759 3.33409 20.1741 4.00446 20.6176 4.63357C20.8135 4.78827 21.0404 4.95328 21.2158 5.09767C21.4014 5.26268 21.5664 5.47926 21.6489 5.65459C22.1543 6.73749 22.1027 7.91321 21.8758 8.90329C21.6386 9.90368 21.2158 10.7906 20.7413 11.6054C20.2669 12.4201 19.7513 13.1627 19.2253 13.8743C18.9675 14.2147 18.7096 14.555 18.4312 14.916C18.2043 15.2254 17.9877 15.5554 17.8124 15.8854C17.637 16.1742 17.472 16.4733 17.3173 16.7724L17.7402 16.4114L18.5137 15.7617C18.7612 15.5554 19.019 15.3491 19.3284 15.0603C19.9163 14.5137 20.4423 13.9156 20.927 13.2658L21.0198 13.0183C21.3086 12.1417 21.9377 11.5332 22.278 10.6772C22.639 9.42927 22.9381 8.19167 22.7525 6.7478C22.6803 6.03618 22.3812 5.25237 21.9686 4.61294C21.6592 4.13853 21.288 3.64349 20.7723 3.14845C20.401 2.7978 19.8854 2.4884 19.3181 2.27182C18.7406 2.04492 18.1424 1.9521 17.5855 1.82834C17.1833 1.76646 16.9151 1.70458 16.482 1.66333C14.8524 1.78709 13.6767 2.32338 12.3566 2.80811C12.0472 2.93187 12.1297 3.25158 12.1813 3.4166C12.3876 3.43722 12.5423 3.4991 12.7073 3.55067C13.7077 3.20002 14.7184 2.84936 15.8425 2.76686C16.3272 2.68435 16.8429 2.69466 17.3276 2.74623C17.8227 2.80811 18.3487 2.93187 18.8231 3.1897C18.8025 3.13814 18.7612 3.08657 18.7096 3.035L18.7303 3.00406Z" fill="#BE1622"/>
<path d="M18.5859 3.47858C18.689 3.55077 18.9778 3.44764 18.8437 3.14855C18.3693 2.89072 17.8433 2.76696 17.3483 2.70508C16.8636 2.65351 16.3582 2.6432 15.8632 2.7257C16.3376 2.69476 16.8326 2.75664 17.2761 2.87009C17.7299 2.98354 18.194 3.17949 18.5859 3.46827V3.47858Z" fill="#BE1622"/>
<path d="M17.9464 4.4273C18.462 4.75733 18.9777 5.273 19.4727 5.90211C19.5965 6.06712 19.7099 6.22182 19.7718 6.33527C19.8543 6.44871 19.9059 6.5931 19.9471 6.73749C20.0297 7.01595 20.0296 7.33566 19.9678 7.62443C19.844 8.24323 19.4521 8.83109 18.9674 9.24363C18.9158 9.43958 18.8333 9.62522 18.7611 9.82118C18.297 11.0278 17.5648 12.2036 16.6469 13.1936C15.564 14.359 14.5533 15.5038 13.5219 16.6486L12.4494 17.8243L12.2431 18.0306L12.1399 18.1234L12.0884 18.1647C12.0884 18.1647 12.0884 18.1131 12.0781 18.0822C12.0162 17.8759 11.9337 17.6799 11.8821 17.5252C11.8615 17.484 11.8924 17.5252 11.8202 17.4118L11.6655 17.1436L11.3355 16.6177C11.1086 16.267 10.8714 15.9164 10.6239 15.576C10.397 15.2666 9.99478 14.8438 9.71632 14.5962C9.40692 14.3075 9.11815 14.0806 8.81906 13.8434C8.22089 13.3793 7.63303 12.9667 7.04517 12.5439C5.86945 11.7085 4.68341 10.8938 3.63145 9.87274C3.07453 9.223 2.73419 8.51138 2.60011 7.86164C2.57949 7.70694 2.56918 7.55224 2.54855 7.38723C2.56918 7.24284 2.5898 7.09846 2.60011 6.96438C2.66199 6.62404 2.75482 6.26308 2.86826 5.92274C3.19829 5.08736 3.53863 4.53044 4.0543 4.02508C4.55965 3.51973 5.28158 3.07626 6.1479 2.71529C7.06579 2.36464 7.87023 2.05524 8.83968 2.16868C9.79882 2.24088 10.7992 2.69466 11.6655 3.40628C12.5525 4.15916 13.7076 3.726 13.5219 3.39597C12.7588 2.4884 11.9646 1.81803 10.9952 1.2508C10.0463 0.693875 8.9325 0.363849 7.80835 0.332909C7.24112 0.322596 6.69451 0.405102 6.20978 0.477295C5.70443 0.580429 5.20939 0.683565 4.70404 0.858891C3.71396 1.18892 2.71356 1.72521 1.94006 2.5709C1.15625 3.40628 0.692152 4.50981 0.516825 5.57208C0.444632 6.11869 0.382756 6.60342 0.424009 7.19128C0.454949 7.81008 0.630271 8.367 0.846851 8.87235C1.28001 9.89337 1.89881 10.7184 2.56918 11.4713C3.23954 12.2242 3.95117 12.9049 4.69373 13.5443C5.83851 14.5344 7.02454 15.4523 8.05587 16.3908C8.5406 16.8342 8.96344 17.3602 9.35535 17.9275C9.5513 18.2162 9.71632 18.4741 9.92259 18.8144C10.0463 19.0207 10.1701 19.2476 10.2939 19.4745C10.3351 19.5157 10.3351 19.6188 10.397 19.6085L10.5723 19.6292L10.7476 19.6498C10.8095 19.6498 10.8714 19.6498 10.8817 19.722C10.9745 19.9386 11.0571 20.1654 11.1396 20.4233C11.2118 20.7017 11.2943 20.9493 11.3355 21.434L11.3561 21.599C11.3561 21.599 11.3561 21.795 11.3561 21.8878V22.5375L11.3046 23.4657V23.6926L11.3768 23.2594L11.5418 22.3828L11.7687 20.8255H11.8099L11.8924 20.7842C11.944 20.7739 12.0059 20.7533 12.0678 20.7533C12.1915 20.7327 12.3256 20.7327 12.4803 20.7533C12.5731 20.7739 12.635 20.7739 12.7484 20.8152L12.9031 20.8668C12.9547 20.8977 13.0063 20.908 13.0475 20.8358L14.1304 19.7323C14.5533 19.2991 14.7698 19.1032 15.0277 18.866L15.8012 18.1543C16.3168 17.6902 16.8325 17.2261 17.3585 16.7827C17.5235 16.4733 17.6885 16.1742 17.8638 15.8854C18.0495 15.5451 18.2558 15.2254 18.4827 14.916C18.7611 14.555 19.0189 14.2147 19.2768 13.8743C19.8028 13.1627 20.3287 12.4201 20.7928 11.6054C21.2569 10.7906 21.6901 9.90368 21.9273 8.90329C22.1542 7.91321 22.1954 6.73749 21.7004 5.65459C21.4013 4.99453 20.5247 4.67482 19.9781 4.02508C19.5552 3.56098 18.988 3.14845 18.3692 2.94218C17.7504 2.72561 17.1522 2.68435 16.5541 2.68435C15.3165 2.73592 14.2542 3.20002 13.2435 3.68474C13.8417 3.9632 14.3264 4.30354 14.8111 4.54075C15.3577 4.29323 15.9456 4.08697 16.4509 4.06634C17.0078 4.04571 17.6266 4.16947 17.9876 4.43761L17.9464 4.4273Z" fill="#BE1622"/>
<path d="M17.9464 4.42736C17.5854 4.1489 16.9666 4.03545 16.4097 4.05608C15.9044 4.0767 15.3165 4.27266 14.7699 4.53049C15.0071 4.64394 15.2443 4.72644 15.4918 4.77801C15.8322 4.80895 16.1416 4.85021 16.3685 4.91209C16.5129 4.95334 16.6572 4.99459 16.8016 5.02553C16.9563 5.06678 17.0904 5.11835 17.2038 5.1596C17.4411 5.25242 17.5545 5.33493 17.7195 5.44838C17.8742 5.56182 18.0805 5.75778 18.2971 6.01561C18.4105 6.13937 18.5136 6.28376 18.6271 6.42814L18.8024 6.66535L18.8849 6.78911C18.9984 6.92318 19.0706 7.12945 19.1324 7.36666C19.2356 7.87201 19.1737 8.55269 18.9674 9.22306C19.4522 8.81052 19.8337 8.23297 19.9678 7.60386C20.0297 7.31509 20.0297 7.00569 19.9472 6.71692C19.9059 6.58284 19.8544 6.43846 19.7719 6.3147C19.71 6.20125 19.6068 6.04655 19.4728 5.88154C18.9777 5.25242 18.4724 4.73676 17.9464 4.40673V4.42736Z" fill="#BE1622"/>
<path d="M17.9464 4.42725C17.5958 4.1591 17.0388 4.04565 16.4716 4.04565C15.9972 4.04565 15.4403 4.22098 14.9143 4.44787C15.3062 4.41693 15.6775 4.39631 16.0178 4.38599C16.2447 4.38599 16.3891 4.38599 16.6263 4.42725C16.8738 4.45819 17.0904 4.49944 17.2864 4.56132C17.6783 4.66445 17.9361 4.81915 18.2249 5.07699C18.5034 5.33482 18.7818 5.71641 19.0293 6.14957C19.0912 6.2527 19.1634 6.37646 19.2047 6.4796L19.2665 6.69618C19.2872 6.85088 19.3181 6.99527 19.2975 7.17059C19.2768 6.99527 19.2253 6.85088 19.1634 6.71681C19.1221 6.64461 19.1118 6.60336 19.0499 6.50022L18.8334 6.1702C18.5446 5.73704 18.2352 5.38639 17.9671 5.18012C17.6989 4.98417 17.4411 4.87072 16.9976 4.79853C16.4819 4.71602 16.2035 4.71602 15.7291 4.80884C16.0488 4.83978 16.2963 4.89135 16.5129 4.96354C16.8429 5.04605 17.1214 5.12855 17.3173 5.21106C17.5133 5.29356 17.637 5.37607 17.802 5.51015C17.9671 5.64422 18.1733 5.85049 18.3796 6.10832C18.5755 6.33521 18.8849 6.76837 18.9262 6.83025C19.019 6.97464 19.1015 7.17059 19.1428 7.41811C19.2356 7.91315 19.1737 8.58352 18.9778 9.22295C19.4522 8.81041 19.8441 8.23287 19.9678 7.61407C20.0297 7.32529 20.0297 7.01589 19.9472 6.72712C19.906 6.59305 19.8544 6.44866 19.7719 6.3249C19.71 6.21145 19.6069 6.05675 19.4728 5.89174C18.9778 5.26262 18.4724 4.74696 17.9464 4.41693V4.42725Z" fill="#BE1622"/>
<path d="M19.9988 6.56229C19.8853 6.11882 19.4934 5.4897 19.1324 5.01529C18.7612 4.53056 18.328 4.15928 17.802 3.96333C17.2761 3.76738 16.5851 3.68487 16.0178 3.73643C15.4093 3.79831 14.7905 3.99427 14.1924 4.26242C14.3368 4.34492 14.4708 4.41712 14.6152 4.48931C14.7287 4.48931 14.8215 4.46868 14.9246 4.46868C15.4506 4.24179 16.0075 4.06646 16.4819 4.06646C17.0388 4.06646 17.5958 4.17991 17.9567 4.44806C18.4724 4.77808 18.9881 5.29375 19.4831 5.92286C19.6069 6.08788 19.7203 6.24257 19.7822 6.35602C19.8647 6.46947 19.9163 6.61385 19.9575 6.75824C20.04 7.0367 20.04 7.35641 19.9781 7.64519C19.8544 8.26399 19.4625 8.85185 18.9881 9.25407C18.9468 9.43971 18.854 9.61503 18.7921 9.80067C18.328 11.0383 17.5751 12.2346 16.6263 13.2453C15.5228 14.4314 14.4914 15.6071 13.4395 16.7725C13.2435 17.0613 13.0476 17.3397 12.8413 17.6182C12.7072 17.7935 12.7279 17.7935 12.6866 17.8657L12.5732 18.041C12.4185 18.2679 12.1916 18.5773 12.0369 18.7011C11.9544 18.4123 11.81 18.1132 11.7172 17.8451L11.645 17.6491L11.3768 17.1541C11.1809 16.8137 10.9849 16.4837 10.7786 16.1537C11.0055 16.4425 11.2118 16.7415 11.4181 17.0406L11.8306 17.6697L12.0988 18.0823C12.0369 17.876 11.9647 17.6904 11.9028 17.5357C11.8822 17.5047 11.9028 17.5357 11.8512 17.4222L11.6965 17.1644L11.3768 16.6487C11.1602 16.3084 10.923 15.968 10.6858 15.6277C9.66481 14.3385 8.63348 13.7094 7.63308 12.9669C7.25149 13.0287 6.77707 12.9669 6.22015 12.5543C5.35383 11.9252 4.65253 11.1827 3.74495 10.5535C3.65213 10.4401 3.8584 10.306 3.68308 10.0791C4.15749 10.7289 4.75566 11.1105 5.34352 11.3374C4.75566 10.9042 4.19875 10.4401 3.66245 9.92443C2.76519 8.91373 2.42485 7.71738 2.64143 6.87169V6.51072C2.64143 5.91255 2.6208 5.31437 2.73425 4.7162C2.61049 4.92247 2.52799 5.15968 2.44548 5.4072C2.41454 4.98435 2.64143 4.48931 2.86832 4.19022C2.82707 4.37586 2.75488 4.53056 2.73425 4.7162C3.0024 4.21085 3.36336 3.79832 3.8584 3.44766C3.24991 3.88082 2.9302 4.58213 2.87864 5.19061C3.26023 3.98395 4.22969 3.12795 5.65293 2.932C5.62199 2.95262 5.59104 2.98356 5.5601 3.00419C6.00357 2.78761 6.48831 2.58134 7.01429 2.41633C7.49901 2.27194 7.96311 2.13787 8.48909 2.1585C9.53074 2.1585 10.6858 2.59165 11.6347 3.38578C12.0988 3.76737 12.5732 3.81894 12.9548 3.76738C13.3364 3.71581 13.6045 3.54048 13.4807 3.34453C12.4391 2.13787 11.2324 1.20967 9.737 0.683689C8.99444 0.425856 8.20032 0.312411 7.4165 0.343351C6.61206 0.384605 5.98295 0.518677 5.26101 0.704316C3.87903 1.06528 2.40422 1.80784 1.47602 3.13826C1.01192 3.788 0.723151 4.54087 0.558137 5.28343C0.465317 5.65471 0.434376 6.026 0.403436 6.39728L0.382812 6.9542L0.44469 7.59362C0.485943 7.1914 0.547822 6.83043 0.661269 6.52103C0.754089 6.20132 0.888166 5.88161 1.01193 5.58252C1.11506 5.31437 1.21819 5.06685 1.40383 4.86059C1.24913 5.08748 1.146 5.335 1.01193 5.58252C0.89848 5.94349 0.826279 6.34571 0.795339 6.75824C0.764399 6.95419 0.795339 7.1914 0.795339 7.4183C0.795339 7.6555 0.805656 7.8824 0.846909 8.09898C0.795343 8.28462 0.96036 8.8106 1.26976 8.88279C1.56885 10.0379 2.54861 10.9661 3.11584 11.8943C3.15709 11.9458 3.17772 12.0696 3.19835 12.2243C3.68307 12.7193 4.18843 13.1731 4.70409 13.6166C5.42603 14.2251 6.14796 14.8233 6.84927 15.4111C7.55057 16.0093 8.23126 16.5559 8.73661 17.185C9.00476 17.515 9.26259 17.8554 9.48948 18.2164L9.82982 18.7526C9.98452 19.0002 10.1392 19.2889 10.2836 19.5674C10.954 19.5674 11.0262 20.2171 11.2221 20.97C11.2427 21.0422 11.2531 21.2175 11.2737 21.3413L11.2943 21.5476V21.6507V21.8466V22.6717L11.2531 23.2699V23.569L11.2324 23.7237L11.284 23.4762L11.4903 22.3829L11.5728 21.8157L11.7068 20.8566H11.7172L11.8203 20.8256C11.8925 20.805 11.9647 20.7947 12.0369 20.7844C11.9647 20.7844 11.8925 20.805 11.8306 20.8153L11.7378 20.8463H11.7172V20.8566L11.6037 21.6713L11.5728 21.9085C11.5315 22.2282 11.4696 22.5273 11.4181 22.8264C11.2531 23.8371 11.3459 22.9089 11.3459 22.6717C11.3665 22.2695 11.3665 22.1045 11.3665 21.8466C11.3665 21.6094 11.3665 21.3619 11.3665 21.2794L11.3253 20.9081C11.2634 20.5059 11.1809 20.2171 11.1087 19.9593C11.0262 19.7118 10.9746 19.4436 10.7993 19.3508C10.6961 19.2683 10.6446 19.093 10.5724 18.9177C10.5002 18.7423 10.4074 18.5567 10.3145 18.3917C10.1289 18.072 9.88139 17.7213 9.60293 17.381C9.03569 16.6694 8.29314 16.0918 7.55058 15.5246C7.15867 15.2667 7.11742 14.8955 6.78739 14.5861C7.61246 14.8645 8.35502 15.4111 9.02538 16.1124C9.67512 16.8344 10.1598 17.7007 10.6858 18.4432C11.0055 18.9383 11.3046 19.5055 11.5831 20.2068C11.645 20.3822 11.7172 20.5575 11.7481 20.7637C11.7481 20.7844 11.7481 20.805 11.7481 20.8256C11.7687 20.7947 11.779 20.7844 11.7894 20.7741L11.8822 20.6709L12.0678 20.475C12.3153 20.2068 12.5629 20.0006 12.8413 19.7634C13.9758 18.6289 14.9968 17.546 15.7187 16.4115C16.3066 15.4627 17.2245 14.8955 18.0392 14.4726C17.9155 14.8026 17.4926 15.2255 17.2761 15.4318C16.3066 16.3909 15.3475 17.3603 14.4089 18.3607L12.8723 20.0315C12.5835 20.2275 12.3257 20.3409 12.0988 20.5369L11.9234 20.6709L11.8409 20.7431L11.7997 20.7741L11.779 20.7947H11.7687V20.805C11.7481 20.9391 11.81 20.5059 11.7275 21.1041C11.7069 21.2897 11.6656 21.4754 11.614 21.661C11.5831 21.826 11.5934 21.6919 11.5831 21.6301V21.4238C11.5728 21.1557 11.5418 20.9906 11.5212 20.7947L11.5418 21.135C11.5418 21.2485 11.5521 21.3722 11.5521 21.5579V21.8157C11.5521 21.8157 11.5521 21.9292 11.5521 21.9188L11.5934 21.7641L11.6656 21.4341L11.6862 21.2588L11.7481 20.8153H11.7584C11.8719 20.7122 11.9853 20.64 12.1091 20.5678C12.2328 20.4956 12.3566 20.4337 12.501 20.3925C12.5732 20.3718 12.6454 20.3512 12.7382 20.3409C12.7794 20.3409 12.8207 20.3409 12.8619 20.3203L12.9754 20.2068C13.5529 19.6087 14.1202 19.0311 14.6874 18.4432C15.6775 17.4429 16.6676 16.4528 17.7917 15.5865C16.6676 16.8034 15.2856 17.7523 14.4915 19.1549C14.6255 19.1033 14.7596 19.0414 14.8834 18.9692C15.6878 18.2164 16.5026 17.4841 17.3379 16.7725C17.5029 16.4734 17.668 16.1743 17.833 15.8855C18.0186 15.5452 18.2249 15.2255 18.4518 14.9161C18.7302 14.5551 18.9881 14.2148 19.2459 13.8744C19.7719 13.1628 20.2979 12.4203 20.762 11.6055C21.2261 10.7908 21.6592 9.90381 21.8964 8.90342C22.1233 7.91334 22.1646 6.73761 21.6695 5.65471C21.587 5.4897 21.422 5.26281 21.2364 5.0978C21.0507 4.96372 20.8342 4.7884 20.6382 4.6337C20.8135 4.89153 20.9682 5.11842 21.1229 5.41751C21.2879 5.72691 21.4014 6.04662 21.4839 6.37665C21.6283 7.0367 21.618 7.68644 21.5561 8.30524C21.6798 7.8102 21.8036 7.31516 21.8964 6.78918C22.1336 8.14023 21.5251 9.05812 21.2157 10.141C21.3498 9.53253 21.4839 8.92404 21.5561 8.30524C21.3498 9.03749 21.0817 9.75942 20.731 10.4195C20.8754 9.69754 21.1745 9.07874 21.3498 8.37743C21.5251 7.68644 21.5664 6.86138 21.092 6.1807C21.2157 6.4901 21.257 6.82012 21.2776 7.12952C21.2467 6.80981 21.1951 6.47978 21.0817 6.16007V6.1807C20.9166 5.69597 20.5969 5.30406 20.2979 4.98435C19.9885 4.64401 19.6378 4.34492 19.2872 4.12834C19.8647 4.67495 20.2463 5.35563 20.5144 6.02599C20.762 6.70667 20.7516 7.40798 20.6898 8.14023C20.6691 8.37743 20.6485 8.62496 20.6073 8.87248C20.6382 8.61464 20.6588 8.37743 20.6898 8.14023C20.731 7.30485 20.6176 6.46947 20.1844 5.78879C19.7306 5.05654 19.2459 4.32429 18.5549 3.84988C17.8742 3.37547 16.977 3.1692 16.1003 3.11764C15.2134 3.10732 14.3264 3.29296 13.4807 3.56111L13.1713 3.7055C13.3054 3.76738 13.4395 3.82925 13.5632 3.90145C14.2439 3.67455 14.9556 3.49923 15.6465 3.43735C15.9972 3.41672 16.3375 3.41672 16.6676 3.46829C17.0182 3.51986 17.3586 3.60236 17.668 3.71581C18.2868 3.9427 18.7612 4.35523 19.1428 4.88121C19.5037 5.39688 19.9163 6.08788 20.0091 6.56229H19.9988Z" fill="#BE1622"/>
</g>
</g>
<path d="M12.1194 5.78873C12.1194 5.78873 10.459 3.31353 7.79814 3.63324C5.1373 3.95295 3.44592 5.25244 3.44592 7.98547C3.44592 10.7185 8.32413 14.06 9.43797 15.3492C10.7168 16.8137 11.5728 18.6804 11.4903 18.7835C11.4078 18.8867 14.7596 15.0914 16.1932 13.6578C17.9568 11.8942 19.4316 8.83116 18.2765 7.01601C17.338 5.55152 16.6367 5.1493 15.3166 5.01523C13.9965 4.88115 12.1194 5.78873 12.1194 5.78873Z" fill="#BE1622"/>
<g opacity="0.8">
<path d="M13.7076 3.66418C14.2027 3.46823 14.8215 3.30321 15.4918 3.30321C16.3272 3.28259 17.2967 3.45792 18.0805 3.95296C18.4827 4.19016 18.8437 4.49956 19.1634 4.8399C19.5037 5.21118 19.6791 5.41745 19.9781 5.86092C20.5351 6.67567 20.8238 7.66575 20.7929 8.66615C20.7723 9.71811 20.5351 10.4916 20.236 11.2548C19.6172 12.7296 18.7302 13.9363 17.5854 14.9882C17.6061 15.0088 17.6164 15.0295 17.6164 15.0604C17.6267 15.1945 17.5442 15.3492 17.3998 15.4317L16.2241 16.2155L15.9869 16.4321L15.7084 16.7002L15.0277 17.3912C14.5843 17.8553 14.1408 18.3194 13.7076 18.7732C14.4089 18.0513 15.1102 17.3293 15.8837 16.6177C16.0384 16.463 16.2241 16.4321 16.3066 16.5352C16.3685 16.6487 16.3685 16.7827 16.1313 17.0199C15.595 17.5769 15.0587 18.1441 14.5121 18.7113C14.2439 18.9795 13.9861 19.3198 13.6973 19.5261C13.357 19.5055 13.0166 19.2579 12.7588 19.1548C12.2431 18.9279 11.8925 18.8557 11.6037 18.8454H11.5006H11.4696C11.5109 18.4329 11.1499 22.3932 11.2943 20.7327L11.2634 21.0834C11.2324 21.5269 11.1499 22.1147 11.088 22.6201C11.0571 22.9192 11.0262 23.0326 11.0055 23.2286L10.923 23.7545L10.8405 24.2702V24.3321C10.8405 24.3321 10.8302 24.3115 10.8302 24.2908V24.198V24.0124C10.8302 23.5483 10.8302 23.0739 10.8405 22.5891C10.8405 22.1663 10.8508 21.7435 10.8611 21.3103C10.8611 21.0628 10.8405 20.8049 10.8302 20.5471C10.8302 20.2583 10.7993 20.1758 10.789 19.9902C10.7683 19.8355 10.758 19.6498 10.7374 19.5261C10.6136 18.9692 10.4796 18.5669 10.3352 18.206C10.263 18.0203 10.1805 17.8553 10.1083 17.6903L9.99483 17.4531C9.93295 17.4119 9.9742 17.185 9.76794 17.4015L9.30383 17.7625C9.23164 17.8141 9.13883 17.8966 9.07695 17.9275L8.99444 17.8038C8.88099 17.6387 8.76754 17.4634 8.64378 17.3087C8.52002 17.154 8.39626 16.989 8.26219 16.8446L8.06623 16.6177L7.95279 16.5249C7.33399 16.0299 6.37485 15.4214 5.49822 14.8335C4.60096 14.225 3.67276 13.5959 2.73424 12.7915C2.49704 12.5852 2.25983 12.3893 2.02262 12.1417C1.78542 11.9148 1.54821 11.657 1.311 11.3579C0.857213 10.8319 0.33124 9.95531 0.0527796 9.0168C0.0115263 8.87241 0.00120853 8.68677 0.0321485 8.60427C0.0630885 8.50113 0.114658 8.52176 0.155911 8.65583C0.393118 9.61497 0.991292 10.5225 1.48633 11.0795C2.002 11.6673 2.52797 12.1211 3.04364 12.513C4.07497 13.3071 5.10631 13.9259 6.1067 14.5447C6.61205 14.8541 7.09678 15.1635 7.58151 15.4626C7.81871 15.6173 8.04561 15.772 8.25187 15.9164C8.35501 15.9886 8.43751 16.0608 8.54065 16.1433C8.67472 16.2774 8.8088 16.4115 8.93256 16.5558C9.05632 16.7002 9.18008 16.8446 9.29352 16.9993L9.46885 17.2262C9.5823 17.185 9.71637 17.1128 9.82981 17.0612L10.0155 16.9787C10.0876 16.9271 10.0773 17.0303 10.1083 17.0406L10.2423 17.2675C10.3249 17.4222 10.4074 17.5769 10.4899 17.7522C10.6549 18.0822 10.7993 18.4432 10.9333 18.9382C10.9643 19.0929 11.0055 19.1651 11.0262 19.3817L11.0674 19.6705L11.088 19.8252V20.0624L11.1396 20.9906V21.2278C11.1396 21.2278 11.1912 21.0421 11.2118 20.9596C11.2531 20.7637 11.2943 20.5677 11.3356 20.2171C11.3562 20.0727 11.3768 19.918 11.3871 19.7942V19.7014L11.4799 18.8248L11.5006 18.8145L11.5728 18.7629L11.7172 18.6701L12.0162 18.4948C11.8719 18.5566 11.7275 18.6495 11.5934 18.7423L11.4903 18.8145L11.4078 19.6705C11.4078 19.7323 11.3871 19.8252 11.3768 19.9077C11.3562 20.0624 11.3252 20.2377 11.3046 20.3099L11.2324 20.5987C11.2324 20.5987 11.2324 20.6296 11.2324 20.5884V20.5059L11.2221 20.3512L11.1912 19.753C11.1602 18.9382 11.0674 18.6907 10.9746 18.34C10.8818 18.0306 10.7786 17.7728 10.6755 17.5356C10.6136 17.4944 10.5208 17.3809 10.428 17.2159C10.3249 16.6074 9.60292 17.0715 9.39666 16.463C9.39666 16.5043 9.38634 16.5352 9.36572 16.5558C9.29352 16.6487 9.12851 16.5558 8.98412 16.3702C8.88099 16.2464 8.75723 16.0917 8.67473 16.0092C8.59222 15.9267 8.53034 15.8545 8.43752 15.772C8.26219 15.6173 8.08686 15.4523 7.89091 15.2873L6.70488 14.2766C6.70488 14.2766 6.66362 14.2457 6.65331 14.225C5.60135 13.4412 4.54939 12.6058 3.56962 11.5436C3.0849 10.9866 2.63111 10.4091 2.24952 9.58403C1.87824 8.76928 1.81636 7.71732 1.88855 6.93351C1.96074 6.09813 2.2392 5.15961 2.79612 4.35517C3.34273 3.55073 4.13685 2.92162 4.92067 2.52971C5.71479 2.12749 6.50893 1.9006 7.27211 1.76653L7.56088 1.71496L7.92185 1.68402C8.15906 1.65308 8.40657 1.65308 8.65409 1.66339C9.13882 1.66339 9.63386 1.76653 10.0876 1.9006C10.2011 1.9006 10.3558 1.96248 10.4074 2.02436C10.4796 2.09655 10.4383 2.14812 10.3352 2.13781C10.3249 2.17906 10.3352 2.24094 10.2939 2.24094C9.62355 2.11718 8.93256 2.10687 8.29313 2.21C7.61245 2.34407 7.15866 2.52971 6.63268 2.74629C5.63229 3.18977 4.58033 3.78794 3.82746 4.77802C3.3221 5.4587 3.04364 6.27345 2.98176 7.04695C3.19834 6.26314 3.7037 5.58246 4.28124 5.25243C4.82785 4.50987 5.68385 3.98389 6.58111 3.72606C7.45775 3.46823 8.46845 3.35478 9.30383 3.73637L9.25227 3.65387C9.40697 3.69512 9.53073 3.80857 9.49979 3.90139C9.47916 3.99421 9.34509 4.03546 9.19039 4.00452C8.40658 3.92201 7.67433 4.14891 6.92145 4.41705C6.19952 4.69551 5.5601 5.08742 5.15788 5.58246C4.75566 6.08781 4.5597 6.66536 4.52876 7.34604C4.48751 8.07828 4.60096 8.50113 4.97224 9.08899C5.7148 10.2544 6.98334 11.3682 8.26219 12.4202C8.92224 12.9771 9.57198 13.4515 10.3249 14.1528L10.6858 14.5241L10.923 14.7923C11.0777 14.9676 11.2118 15.1532 11.3356 15.3286C11.4387 15.4729 11.5212 15.607 11.6037 15.7514C11.645 15.8236 11.6759 15.8958 11.7068 15.968C11.7068 15.9886 11.7172 16.0092 11.7068 16.0299C11.7068 16.0299 11.7378 15.9989 11.7481 15.9783L11.8409 15.8649C12.0781 15.5761 12.305 15.2976 12.5319 15.0398C12.7588 14.782 12.9857 14.5241 13.2332 14.2766L13.8933 13.5959L14.6358 12.8534C14.7802 12.709 14.9659 12.5955 15.1102 12.5646C15.2443 12.544 15.3681 12.5646 15.4506 12.6471C15.6362 12.8121 15.5434 13.1731 15.2443 13.4825C14.7802 13.9569 14.2955 14.4932 13.8933 14.9367L12.8619 16.1433L11.7997 17.4325L11.6656 17.5975L11.5934 17.68C11.5934 17.68 11.5418 17.7522 11.5521 17.6903C11.5212 17.5666 11.4593 17.4531 11.4078 17.3397C11.2943 17.1128 11.1602 16.8859 11.0158 16.659C10.4796 15.8545 9.96389 15.1326 8.93256 14.3075C9.25227 14.6066 9.63386 15.0192 9.84013 15.3492C10.0773 15.6998 10.2939 16.0814 10.5002 16.5043C10.8715 17.0096 11.2118 17.5356 11.449 18.1338C11.4799 18.1854 11.5006 18.3297 11.5109 18.3297L11.6759 18.1441L12.0059 17.7831C12.2225 17.5562 12.4494 17.319 12.6763 17.0818C13.2229 16.5352 13.7798 15.9886 14.3677 15.4214C14.9762 14.8438 15.5846 14.2663 16.1828 13.699C17.3792 12.5543 18.3693 10.997 18.4621 9.24369C18.5033 8.398 18.2042 7.64513 17.6576 7.21197C17.2245 6.83037 16.781 6.56223 16.3478 6.49003C15.9044 6.40753 15.5125 6.52097 15.1412 6.66536C14.6977 6.91288 14.0067 7.37698 13.3467 7.88233C13.2745 7.95452 13.1404 7.97515 13.1198 7.89265C13.0785 7.87202 13.0579 7.83076 13.0682 7.78951C13.0476 7.75857 13.0682 7.71732 13.0991 7.67607C13.7489 7.06758 14.5533 6.47972 15.1928 6.22188C15.6156 6.08781 16.09 6.00531 16.585 6.13938C17.0698 6.26314 17.5339 6.59317 17.9877 7.0057C18.5549 7.48011 18.8746 8.26393 18.9055 9.13025C18.9468 10.0791 18.689 11.0073 18.2971 11.8323C17.9052 12.6677 17.3689 13.4103 16.7191 14.0703C16.1106 14.6685 15.5021 15.2667 14.873 15.8855C14.5224 16.2361 14.1717 16.5868 13.8108 16.9374L13.2951 17.4531C13.1301 17.6387 12.9341 17.68 12.7588 17.7831C12.5732 17.8863 12.3978 18.01 12.2328 18.1338C12.5113 17.9378 12.8104 17.8656 13.1816 17.7934C13.522 17.6284 13.8623 17.319 14.2336 17.0612L15.2134 16.0608L16.0178 15.2873L16.8119 14.5551C17.0801 14.3282 17.4101 13.9981 17.6783 13.7094C18.7612 12.4718 19.6894 11.0588 19.9369 9.09931C20.0194 8.09891 19.8131 7.06758 19.2046 6.28377C18.9468 5.93311 18.7612 5.71654 18.4724 5.42776C18.1939 5.1493 17.8948 4.89147 17.5545 4.69551C16.8944 4.28298 16.1003 4.13859 15.3681 4.10765C14.8937 4.07671 14.4192 4.14891 13.9964 4.23142C13.6767 4.32424 13.357 4.29329 13.2435 4.14891C13.1404 4.00452 13.3054 3.76731 13.6458 3.66418H13.7076ZM4.60096 10.6566C5.03411 11.0073 5.42603 11.327 5.79731 11.6364C5.08569 10.9454 4.405 10.2131 3.9409 9.34683C3.44586 8.49082 3.43555 7.43886 3.69338 6.46941C3.40461 7.13977 3.27053 7.94421 3.45617 8.7074C3.65213 9.47059 4.10591 10.11 4.59064 10.6669L4.60096 10.6566Z" fill="#BE1622"/>
<path d="M5.52911 8.12975C5.52911 8.25351 5.52911 8.36696 5.60131 8.50103C5.64256 8.65573 5.76632 8.83106 5.86946 8.99607C6.12729 9.33641 6.46763 9.65613 6.89047 9.88302C6.93173 9.90365 6.97298 9.90365 6.98329 9.86239C6.9936 9.82114 6.97298 9.77989 6.92141 9.74895C6.51919 9.53237 6.18916 9.23328 5.95196 8.91356C5.85914 8.75886 5.73538 8.58354 5.70444 8.44947C5.65287 8.31539 5.65288 8.22257 5.65288 8.10913C5.65288 8.0885 5.63225 8.06787 5.59099 8.06787C5.56005 8.06787 5.52911 8.0885 5.5188 8.11944L5.52911 8.12975Z" fill="#BE1622"/>
<path d="M7.52996 10.1821C8.22096 10.5843 8.92226 10.9969 9.66482 11.4816C10.0361 11.7291 10.4074 11.9766 10.8199 12.286C11.0159 12.4304 11.2531 12.6264 11.4697 12.812L11.8409 13.1627H11.8719C12.0163 13.1317 11.9441 13.3277 12.0781 13.3174C12.1297 13.3277 12.1916 13.3277 12.2844 13.3071H12.3153C12.3153 13.3071 12.3153 13.3071 12.3463 13.2864L12.4494 13.1833L12.8723 12.7914L13.7283 11.987L14.1614 11.5847C14.2543 11.4919 14.3471 11.4197 14.4399 11.3166C14.6152 11.131 14.8009 10.9247 14.9452 10.7081C15.2546 10.2749 15.5125 9.77991 15.6259 9.33643C15.6569 9.19205 15.6878 9.05797 15.6878 8.93421C15.6981 8.80014 15.6878 8.71763 15.6569 8.69701C15.6053 8.62481 15.5125 8.58356 15.3681 8.60419C15.3578 8.60419 15.3062 8.62481 15.265 8.64544C15.2134 8.66607 15.1928 8.67638 15.2031 8.66607C15.3062 8.63513 15.3784 8.65576 15.43 8.6867C15.4815 8.73826 15.4506 9.04766 15.3784 9.29518C15.2237 9.84179 14.8421 10.4606 14.3883 10.9659C14.2749 11.0897 14.1614 11.2135 14.0377 11.3063L13.5014 11.8013L12.3669 12.8739L12.2328 13.008C12.2328 13.008 12.1297 13.1111 12.14 13.0905H12.1194C12.1194 13.0905 12.0885 13.0802 12.0781 13.0699C12.0575 13.0595 12.0472 13.0389 12.0369 13.0286C12.0059 12.9667 12.0678 12.9874 11.975 13.0492C11.9544 13.0492 11.9853 13.0802 11.9234 13.0286L11.5418 12.6676C11.315 12.4717 11.0777 12.2757 10.8818 12.1417C10.4693 11.8323 10.098 11.5744 9.71638 11.3269C8.97382 10.8422 8.26221 10.4193 7.57122 10.0274C7.52996 10.0068 7.48871 10.0274 7.47839 10.0481C7.47839 10.0893 7.50933 10.1409 7.54027 10.1615L7.52996 10.1821Z" fill="#BE1622"/>
<path d="M14.6564 11.2136C14.543 11.3683 14.4295 11.523 14.3058 11.6571L13.7489 12.2759C13.3776 12.6884 13.0063 13.101 12.6247 13.5135C12.4184 13.7404 12.2328 13.8745 12.0781 13.8435C12.0368 13.8332 12.0059 13.8229 11.975 13.8229C11.9646 13.8229 11.944 13.8229 11.9337 13.8229L11.9131 13.7507C11.8821 13.6682 11.8409 13.6476 11.7481 13.6579C11.6862 13.6579 11.6037 13.6579 11.5109 13.6373L11.3665 13.596C11.2427 13.5032 10.9746 13.2453 10.8096 13.1422C10.067 12.5853 9.46882 12.1624 8.90159 11.6055C8.87065 11.5643 8.80877 11.554 8.77783 11.5643C8.75721 11.5849 8.7572 11.6365 8.79846 11.6777C9.39663 12.3171 10.0464 12.7709 10.8714 13.4516L11.1911 13.7404L11.284 13.7919L11.449 13.8848C11.5521 13.9363 11.6346 13.9879 11.7068 14.0395C11.7687 14.091 11.8203 14.1426 11.8615 14.2045C11.8821 14.2251 11.8925 14.3076 11.9131 14.2973L12.0059 14.1942C12.1297 14.0704 12.2534 13.9879 12.4081 13.8641L12.6453 13.6785L12.7072 13.6269L12.9135 13.4207L13.3363 12.9772C13.6251 12.6678 13.9036 12.3687 14.1923 12.049L14.4089 11.8118L14.543 11.6468C14.6358 11.5436 14.708 11.4096 14.7905 11.2858C14.8214 11.2446 14.8111 11.193 14.7905 11.1724C14.7596 11.1517 14.708 11.1724 14.6874 11.2033L14.6564 11.2136Z" fill="#BE1622"/>
<path d="M10.459 19.4951C10.3146 18.8351 10.1289 18.3813 9.95362 17.9172L9.81954 17.5872L9.79892 17.5459L9.71641 17.6181L9.54109 17.7728L9.20075 18.0719L8.86041 18.371L8.7779 18.4432C8.7779 18.4432 8.75728 18.4122 8.74696 18.4019L8.6954 18.3091L8.48913 17.9481C8.34475 17.7212 8.20036 17.4943 8.03534 17.2881C7.87033 17.0818 7.68469 16.8446 7.64344 16.824C7.49905 16.6796 7.29278 16.5146 7.06589 16.3392C6.12737 15.6379 5.01354 14.9573 3.87907 14.39C3.81719 14.3591 3.77593 14.39 3.78625 14.4416C3.78625 14.4932 3.84813 14.5654 3.91001 14.586C5.01354 15.1429 6.08612 15.8442 6.96276 16.5455C7.0762 16.6383 7.16902 16.7208 7.26184 16.793C7.35466 16.8755 7.43717 16.9477 7.48874 17.0096L7.5403 17.0612L7.65375 17.2056L7.90127 17.5253C8.05597 17.7522 8.21067 17.9688 8.35505 18.2163L8.56133 18.5876L8.61289 18.6804V18.701L8.67477 18.6597L8.76759 18.5772L9.12855 18.2369L9.48952 17.8966L9.67516 17.7316C9.67516 17.7316 9.74735 17.649 9.75767 17.6697L9.7783 17.7109L9.91237 18.041C10.0877 18.5051 10.263 18.9691 10.4177 19.6292C10.4796 19.8561 10.5312 20.0933 10.5518 20.0624C10.5621 20.0211 10.5518 19.7117 10.4796 19.4951H10.459Z" fill="#BE1622"/>
<path d="M4.75562 7.92352C4.78656 8.2948 4.88969 8.6042 5.09596 8.99611C5.32285 9.38802 5.6013 9.79023 5.95196 10.1821C6.63264 10.966 7.47833 11.6673 8.39622 12.2964C8.77781 12.6677 9.18004 13.0286 9.59257 13.4102L10.2526 14.0084C10.4176 14.1734 10.5826 14.3384 10.7477 14.5034C10.7992 14.5756 10.892 14.5653 10.9436 14.4828C10.9952 14.4003 11.0055 14.2972 10.9642 14.2456L10.8508 14.1012L10.5208 13.7299C10.2939 13.503 10.067 13.2865 9.86071 13.1008C9.89165 13.1008 9.91228 13.0699 9.9329 13.0492C10.1289 13.2039 10.3351 13.3793 10.5517 13.5649C10.6548 13.6474 10.7683 13.7815 10.8817 13.8846L11.0467 14.0496C11.1808 14.1837 11.3046 14.3281 11.4077 14.4622C11.5212 14.6066 11.614 14.7509 11.6965 14.8953C11.7377 14.9675 11.779 15.0397 11.8099 15.1222C11.8099 15.1429 11.8202 15.1635 11.8202 15.1738L11.8615 15.1222L11.9543 15.0088C11.9543 15.0088 12.0059 14.885 12.0059 14.7922C12.0059 14.6994 11.9853 14.6478 11.9646 14.6684L11.8924 14.7509C11.8924 14.7509 11.8615 14.7922 11.8615 14.7819C11.8615 14.7613 11.8615 14.7406 11.8512 14.7303C11.8306 14.6581 11.7893 14.5962 11.7584 14.5344C11.6862 14.4106 11.6037 14.2972 11.5005 14.1837C11.4077 14.0703 11.2943 13.9568 11.1602 13.8434L10.8714 13.5649C10.7477 13.4412 10.6445 13.369 10.5311 13.2658C10.3042 13.0699 10.1082 12.9255 9.89166 12.7605C9.8504 12.6986 9.78852 12.6264 9.71633 12.5748C8.38591 11.5538 7.11736 10.6772 6.1376 9.63553C5.80757 9.27457 5.50849 8.87235 5.39504 8.55264C5.27128 8.25355 5.24034 8.02666 5.29191 7.676C5.41567 6.85094 5.69413 6.48997 6.16854 6.13932C6.55014 5.85054 7.17925 5.47926 7.95275 5.34519C8.4581 5.26268 8.82938 5.43801 9.33474 5.46895C10.0257 5.5102 10.8611 5.77835 11.6037 6.13932C11.6449 6.15994 11.6862 6.14963 11.6862 6.09806C11.7068 6.07743 11.6655 6.01556 11.6243 5.99493C10.8611 5.60302 10.0051 5.29362 9.32442 5.37613C9.05627 5.26268 8.79844 5.21112 8.54061 5.18018C8.26215 5.18018 8.0765 5.18018 7.6846 5.273C7.00392 5.4277 6.39544 5.69584 6.08604 6.05681C5.7457 6.20119 5.44661 6.3559 5.18877 6.65498C4.93094 6.93344 4.7453 7.46974 4.76593 7.92352H4.75562Z" fill="#BE1622"/>
</g>
<path d="M12.4288 6.84078C12.4288 6.84078 11.4903 5.42785 9.97422 5.61349C8.45816 5.79913 7.49902 6.53138 7.49902 8.08869C7.49902 9.66663 10.2733 11.5437 10.9127 12.2759C11.645 13.1113 12.1297 14.1736 12.0781 14.2251C12.0266 14.2767 13.9345 12.1315 14.7596 11.3064C15.76 10.3061 16.6057 8.5631 15.9456 7.53177C15.4094 6.69639 15.0174 6.4695 14.2646 6.3973C13.5117 6.32511 12.4494 6.83046 12.4494 6.83046L12.4288 6.84078Z" fill="#BE1622"/>
<g opacity="0.8">
<path opacity="0.8" d="M11.7894 7.01611C11.841 6.89235 11.9132 6.62421 11.9441 6.47982C12.1091 6.36637 12.3566 6.55202 12.6454 6.6964C12.8001 6.6964 12.9754 6.56233 13.0889 6.43857C13.2126 6.31481 13.2126 6.11886 13.1404 6.08792C12.7279 5.52068 11.6141 5.35567 11.2634 5.74757C11.1293 5.7682 11.3562 6.31481 11.5212 6.57264C11.645 6.57264 11.7791 6.59327 11.9132 6.61389" fill="#BE1622"/>
<path d="M7.69501 11.9046C7.78783 11.9252 7.88065 11.9458 7.97347 11.9561C7.77752 11.5333 7.69501 11.0382 7.47843 10.4401C7.36498 10.2338 7.10715 10.6051 7.04527 10.9145C6.43679 10.5226 5.92112 10.5329 5.39514 10.0791C6.18927 11.0073 7.05558 11.2651 7.73626 11.6158L7.69501 11.9149V11.9046Z" fill="#BE1622"/>
<path opacity="0.7" d="M14.8937 11.028C14.5946 11.1724 14.2852 11.3271 13.9758 11.4818C13.5633 11.7499 13.223 11.9665 12.9239 12.1831C12.7795 12.2965 12.6351 12.3997 12.501 12.5234L12.3051 12.7091L12.2123 12.8122C12.2123 12.8122 12.1504 12.905 12.1504 12.8328C11.841 12.1418 11.4594 11.8428 10.263 11.5334C10.2218 11.554 10.1702 11.5643 10.1187 11.554C10.6549 11.9046 11.1294 12.2656 11.4594 12.6678C11.6347 12.8638 11.7791 13.07 11.9132 13.2763C11.9751 13.3794 12.0369 13.4929 12.0885 13.6063C12.0885 13.6373 12.1091 13.6682 12.1091 13.6992C12.1091 13.6992 12.1504 13.6476 12.171 13.627L12.3051 13.462C13.027 12.6059 13.6664 12.0181 14.8525 11.3168C14.935 11.3374 15.0484 11.1518 15.1619 10.9558C15.0587 10.9558 14.9762 10.9868 14.904 11.0383L14.8937 11.028Z" fill="#BE1622"/>
<path opacity="0.8" d="M16.3994 6.00532C16.3994 6.18065 16.3582 6.49005 16.3582 6.49005C16.5335 6.61381 16.6779 6.73757 16.7914 6.87164C16.9048 6.9954 17.0904 7.29449 17.1626 7.51107C17.338 7.9958 17.307 8.47021 17.2142 8.87243C17.0079 9.68719 16.5541 10.275 16.0694 10.9248C15.9456 11.0589 15.4815 10.9042 15.1515 10.9248C15.0484 11.1311 14.9246 11.3064 14.8421 11.2858C13.6561 11.9871 13.0167 12.5749 12.2947 13.4309L12.1607 13.5959C12.1607 13.5959 12.1091 13.6681 12.0988 13.6681C12.0988 13.6372 12.0885 13.6062 12.0782 13.5753C12.0266 13.4619 11.975 13.3587 11.9028 13.2453C11.7688 13.039 11.6244 12.8327 11.449 12.6368C11.119 12.2243 10.6446 11.8736 10.1083 11.523C9.98455 11.5126 9.89173 11.4301 9.99487 11.4405C9.99487 11.4405 9.30387 11.1929 9.37607 10.7701C9.61327 11.1001 9.8711 11.2858 10.2836 11.4817H10.263C11.4594 11.8014 11.8409 12.1108 12.1503 12.8018C12.1503 12.8843 12.1813 12.8224 12.2122 12.7812L12.305 12.6781L12.501 12.4924C12.6351 12.379 12.7691 12.2655 12.9238 12.1521C13.2229 11.9355 13.5633 11.7189 13.9758 11.4508C13.2436 11.7705 12.7691 11.8633 12.4391 11.9871C12.3566 12.018 12.2741 12.0592 12.2019 12.1005C12.1813 11.9458 12.1297 11.822 12.0782 11.7189C11.975 11.5126 11.8409 11.3683 11.6347 11.2548C11.5625 11.2445 11.4903 11.2136 11.4078 11.1826C11.3665 11.1723 11.315 11.1414 11.2943 11.1311C11.2221 11.0898 11.1603 11.0382 11.0984 10.997C10.8406 10.8217 10.6137 10.6463 10.428 10.4813C9.97424 9.8522 9.27293 9.72844 9.13886 8.99619C9.07698 8.64554 9.28324 8.25363 9.53076 8.00611C9.59264 7.95455 9.66483 7.90298 9.7164 7.87204C9.74734 7.85141 9.7164 7.87204 9.67515 7.89267L9.5617 7.93392C9.47919 7.96486 9.39669 7.98549 9.30387 8.00611C9.10791 8.03705 9.06666 8.06799 8.90165 8.06799H8.85009H10.1083L10.1289 8.04736C10.1289 8.04736 10.1393 8.01643 10.1496 8.00611C10.1186 7.97517 9.73703 7.89266 9.70609 7.85141C9.45857 7.74828 9.48951 7.72765 9.55139 7.79985C9.59265 7.8411 9.67515 7.93392 9.75766 8.06799C9.77828 8.09893 9.79891 8.14019 9.81953 8.17113L9.79891 8.11956C9.79891 8.11956 9.77828 8.03705 9.76797 7.98549C9.75766 7.78953 9.81954 7.5317 9.98455 7.30481C10.0567 7.13979 10.1805 7.08822 10.2218 6.89227C10.294 6.50036 10.1908 6.23222 10.5518 6.17034C10.4796 5.89188 10.1186 5.80937 10.1496 5.61342C10.3455 5.34527 10.7065 5.31433 10.954 5.18026C10.7374 5.03587 10.4796 4.93274 10.2114 4.87086C10.1083 4.87086 10.0155 4.85023 9.92267 4.80898C9.74735 4.77804 9.5617 4.7471 9.41731 4.70585C9.37606 4.73679 9.34512 4.76772 9.34512 4.76772C9.08729 4.63365 8.8604 4.55114 8.62319 4.53052C8.41692 4.69553 7.81875 4.69553 7.75687 5.03587C7.73624 4.94305 7.69499 4.88117 7.63311 4.83992C7.47841 4.94305 7.32371 5.08744 7.1587 5.27308C6.98337 5.27308 6.60178 5.32465 6.41614 5.38653C6.31301 5.62373 6.24081 6.09814 6.24081 6.09814C6.01392 6.2941 5.79734 6.34566 5.59107 6.3766C5.51888 6.61381 5.49825 6.87164 5.53951 7.10885C5.3023 7.2223 5.09603 7.49044 4.97227 7.78953C4.93102 8.02674 4.94133 8.64554 4.94133 8.99619C5.00321 9.29528 5.10634 9.63562 5.2301 9.82126C5.29198 9.89345 5.35386 9.98627 5.40543 10.0585C5.93141 10.5122 6.44708 10.5019 7.05557 10.8938C7.11745 10.5844 7.37528 10.2235 7.48873 10.4194C7.70531 11.0279 7.78781 11.5126 7.98376 11.9355C8.33441 11.9871 8.67476 11.9767 8.89134 12.1314C8.89134 12.1314 8.87071 12.3171 8.85009 12.4718L9.01509 12.5646C9.2523 12.5646 9.44826 12.6059 9.59265 12.6884C9.66484 12.7399 9.70609 12.7709 9.78859 12.8637C9.86079 12.9771 9.93298 13.1009 9.98455 13.2556L10.1083 13.4C10.1083 13.4 10.1393 13.4722 10.1805 13.4516L10.3661 13.2865L10.7374 12.9565C10.8199 12.8637 10.7993 12.9565 10.8199 12.9565L10.8612 13.0287C10.9746 13.204 11.0778 13.4103 11.1706 13.6166C11.2531 13.73 11.3356 13.8331 11.4078 13.9466C11.5212 13.9672 11.5934 14.5035 11.6141 15.112C11.6347 15.2254 11.6553 15.4214 11.6656 15.6173C11.6862 15.7617 11.6966 16.1124 11.6966 16.4218C11.7069 16.5765 11.7069 16.9581 11.7172 17.2056C11.7172 17.2572 11.7172 17.3809 11.7172 17.3809L11.7481 17.319C11.7688 17.2675 11.7791 17.2675 11.7997 17.1643C11.8616 16.5662 11.9338 15.9783 11.975 15.473V15.2976L12.0575 14.256H12.0782L12.1194 14.2354C12.2432 14.1735 12.3566 14.1219 12.4391 14.0807C12.5113 14.0188 12.5835 13.926 12.6351 13.7919C12.6144 13.8744 12.5938 13.9672 12.5113 14.0394C12.7382 13.9466 12.9445 13.9157 13.2126 14.2972C13.3364 14.2663 13.4705 14.2147 13.4705 14.2147C13.5323 14.3076 13.6045 14.3282 13.6767 14.3591C14.0996 13.6372 14.3677 12.874 14.7184 12.4718C14.7906 12.2861 14.4708 13.1937 14.9968 13.039C15.6775 12.7193 15.6363 12.6162 16.121 12.2243C16.2551 12.1108 16.4097 12.018 16.5541 11.9252C16.6779 11.8014 16.8017 11.6673 16.8842 11.5023C17.2451 10.8113 17.5545 10.0894 17.7092 9.18183C17.7814 8.72805 17.8124 8.20206 17.6783 7.60389C17.6061 7.3048 17.4926 7.00572 17.3276 6.71695C17.1936 6.49005 17.1214 6.37661 16.977 6.18065C16.7398 5.84031 16.3479 5.38653 15.7703 5.0565C15.4919 4.9018 15.1928 4.78835 14.935 4.71616L14.574 4.62334C14.4708 4.60271 14.3677 4.58209 14.1924 4.56146C13.5736 4.49958 13.1301 4.56146 12.697 4.62334C12.2535 4.69553 11.9338 4.75741 11.449 4.91211C12.2741 4.72647 12.8517 4.65428 13.7799 4.68522C13.9036 4.68522 14.0171 4.70585 14.1511 4.72647C14.2955 4.7471 14.4193 4.77804 14.4915 4.79867C14.6771 4.85023 14.8834 4.91211 15.1206 5.01525C15.595 5.20089 16.1004 5.59279 16.3685 5.97439L16.3994 6.00532Z" fill="#BE1622"/>
</g>
</svg>
