<svg width="32" height="32" viewBox="0 0 32 32" fill="none" xmlns="http://www.w3.org/2000/svg">
<mask id="mask0_26_3098" style="mask-type:luminance" maskUnits="userSpaceOnUse" x="0" y="0" width="32" height="32">
<path d="M24.3175 31.6307C24.3175 31.6307 35.1302 16.8742 29.5102 4.8947C27.6533 0.934409 22.9372 -0.774594 18.9604 1.0823C14.9837 2.9392 13.2911 7.65539 15.148 11.6321H15.1152C13.2583 7.68826 8.54208 5.97926 4.56536 7.83615C0.588643 9.69305 -1.10393 14.4092 0.75297 18.386C6.37296 30.3654 24.6297 31.4993 24.6297 31.4993" fill="white"/>
</mask>
<g mask="url(#mask0_26_3098)">
<path d="M12.946 37.218L9.42938 35.6076L25.1226 -0.988037L28.6392 0.62237L12.946 37.218Z" fill="#BE1622"/>
<path d="M7.45758 35.2293L19.6835 -5.37598L23.4138 -4.37358L11.2042 36.2317L7.45758 35.2293Z" fill="#BE1622"/>
<path d="M6.73505 32.4849L3.21844 30.8745L19.0103 -5.98413L22.5269 -4.37372L6.73505 32.4849Z" fill="#BE1622"/>
<path d="M21.4422 37.2502L17.9256 35.6562L32.6493 1.72266L36.1824 3.31663L21.4422 37.2502Z" fill="#BE1622"/>
<path d="M1.78851 30.7105L12.6505 -5.16211L15.8549 -4.32404L5.00933 31.5486L1.78851 30.7105Z" fill="#BE1622"/>
<path d="M23.3813 38.5159L34.2269 2.64331L37.4477 3.48138L26.5857 39.354L23.3813 38.5159Z" fill="#BE1622"/>
<path d="M0.440798 32.6991L-3.07581 31.0887L12.5682 -5.35913L16.0848 -3.74872L0.440798 32.6991Z" fill="#BE1622"/>
<path d="M-5.44202 30.5792L6.78393 -10.0425L10.5306 -9.04008L-1.69535 31.5652L-5.44202 30.5792Z" fill="#BE1622"/>
<path d="M-6.49353 31.3841L1.24628 -10.2893L4.20417 -9.96065L-3.53564 31.7127L-6.49353 31.3841Z" fill="#BE1622"/>
<path d="M16.134 35.3278L26.5688 -0.347656L30.299 0.687605L19.8642 36.363L16.134 35.3278Z" fill="#BE1622"/>
</g>
</svg>
