<svg width="25" height="25" viewBox="0 0 25 25" fill="none" xmlns="http://www.w3.org/2000/svg">
<path fill-rule="evenodd" clip-rule="evenodd" d="M20.1302 5.79404C20.5008 5.42282 21.1015 5.42282 21.4721 5.79404C21.8426 6.16526 21.8426 6.76714 21.4721 7.13836L19.45 9.16418C19.0792 9.53564 18.4774 9.53591 18.1063 9.16479C17.7356 8.79415 17.7354 8.1933 18.1057 7.82232L20.1302 5.79404ZM16.0573 9.87439C16.4281 9.50293 17.0299 9.50265 17.401 9.87377C17.7717 10.2444 17.772 10.8453 17.4017 11.2162L9.39535 19.2372C9.02481 19.6084 8.42403 19.6084 8.05349 19.2372L4.02791 15.2043C3.65736 14.833 3.65736 14.2312 4.02791 13.8599C4.39845 13.4887 4.99922 13.4887 5.36977 13.8599L8.72442 17.2207L16.0573 9.87439Z" fill="#BE1622"/>
</svg>
