<svg width="27" height="24" viewBox="0 0 27 24" fill="none" xmlns="http://www.w3.org/2000/svg">
<path d="M21.6844 24C21.4748 24 21.2667 23.938 21.0881 23.8169L14.3416 19.2406L10.7232 21.8443C10.4394 22.0483 10.0736 22.0997 9.74407 21.9819C9.41497 21.8638 9.16503 21.5912 9.07581 21.2532L7.25894 14.3678L0.767081 11.8855C0.358392 11.7291 0.0873491 11.3382 0.0843753 10.9006C0.0814015 10.463 0.347063 10.0683 0.75377 9.90647L25.4382 0.0843474C25.5502 0.0367661 25.6688 0.00929355 25.7883 0.00192979C25.8311 -0.000619207 25.874 -0.00061913 25.9166 0.00178825C26.1641 0.0165158 26.4073 0.117343 26.597 0.303419C26.6167 0.322678 26.6354 0.342362 26.6531 0.362896C26.8103 0.542458 26.8967 0.761388 26.913 0.984425C26.9169 1.0405 26.9166 1.09729 26.9117 1.15408C26.9083 1.19458 26.9025 1.23493 26.8943 1.27501L22.7277 23.1367C22.6607 23.4879 22.4216 23.7819 22.0914 23.9189C21.9604 23.9732 21.8221 24 21.6844 24ZM14.934 17.0757L20.9435 21.1519L24.1855 4.14107L12.4762 15.4085L14.9056 17.0565C14.9154 17.0626 14.9248 17.0691 14.934 17.0757ZM9.93128 16.1692L10.7359 19.2181L12.4695 17.9706L10.1995 16.4308C10.094 16.3594 10.0036 16.2705 9.93128 16.1692ZM4.06874 10.8735L8.52636 12.5778C8.84569 12.6999 9.08671 12.9684 9.17395 13.2989L9.73926 15.4413C9.76517 15.1942 9.87719 14.9617 10.0592 14.7865L21.2165 4.05044L4.06874 10.8735Z" fill="#3B3B3B"/>
</svg>
