<svg width="25" height="24" viewBox="0 0 25 24" fill="none" xmlns="http://www.w3.org/2000/svg">
<path d="M12.4996 0C6.01406 0 0.737915 5.27636 0.737915 11.7618C0.737915 14.3 1.76815 16.5791 2.21119 17.4412C2.41745 17.8427 2.91028 18.0007 3.31159 17.7945C3.713 17.5883 3.87122 17.0955 3.66495 16.6941C3.27639 15.9378 2.37245 13.9432 2.37245 11.7616C2.37234 6.17758 6.91539 1.63442 12.4996 1.63442C18.0843 1.63442 22.6277 6.17758 22.6277 11.7618C22.6277 17.3461 18.0843 21.8893 12.4996 21.8893C10.3155 21.8893 8.5801 21.1331 7.93527 20.8079C7.74404 20.7113 7.52252 20.6939 7.31854 20.7592L2.17098 22.4041C1.74112 22.5415 1.50392 23.0014 1.64132 23.4313C1.75224 23.7786 2.07368 24 2.41952 24C2.502 24 2.5858 23.9875 2.6685 23.961L7.50541 22.4153C8.51734 22.885 10.2984 23.5237 12.4996 23.5237C18.9854 23.5237 24.2621 18.2474 24.2621 11.7618C24.2621 5.27636 18.9854 0 12.4996 0Z" fill="#3B3B3B"/>
<path d="M10.1807 9.75608C9.82276 10.031 9.75553 10.544 10.0303 10.902C10.3052 11.26 10.8181 11.3273 11.1763 11.0524C11.4268 10.86 12.0922 10.3489 11.9948 9.43486C11.9348 8.89147 11.4046 8.14584 10.9703 7.61618C10.335 6.84103 9.79715 6.38197 9.37482 6.25274C8.97907 6.13005 8.57351 6.14945 8.16905 6.31049C7.33702 6.64304 6.74982 7.19395 6.47088 7.90373C6.19924 8.59498 6.2486 9.3685 6.61395 10.1415C7.46679 11.9417 8.60664 13.4965 10.0019 14.7629C10.0073 14.768 10.0129 14.773 10.0185 14.778C11.4335 16.0289 13.1077 16.9927 14.9953 17.6429C15.3534 17.766 15.7049 17.8273 16.0425 17.8273C16.4666 17.8273 16.8688 17.7305 17.2345 17.5377C17.9091 17.182 18.3918 16.5377 18.6308 15.6728C18.7458 15.2535 18.7201 14.8486 18.5557 14.4716C18.3793 14.0635 17.8638 13.5799 17.0233 13.0341C16.4491 12.6612 15.6502 12.2169 15.1012 12.2169C15.1009 12.2169 15.1004 12.2169 15.1 12.2169C14.1841 12.2206 13.7492 12.9383 13.5855 13.2086C13.3517 13.5947 13.475 14.0972 13.8611 14.331C14.2469 14.5649 14.7496 14.4416 14.9835 14.0555C15.0481 13.9487 15.0891 13.892 15.1148 13.8624C15.5764 13.9964 16.811 14.8041 17.064 15.1439C17.0682 15.162 17.0687 15.1893 17.0551 15.2391C16.9746 15.5306 16.808 15.9151 16.4722 16.0921C16.1585 16.2573 15.7845 16.1861 15.5268 16.0976C13.8474 15.5191 12.3611 14.6657 11.1092 13.5611C11.1088 13.5608 11.1084 13.5605 11.1081 13.56C9.86841 12.4369 8.85333 11.0514 8.09114 9.44259C7.97444 9.19547 7.86232 8.83165 7.99199 8.50182C8.1308 8.14856 8.49463 7.94067 8.77466 7.82876C8.82271 7.80959 8.84984 7.80664 8.86956 7.80926C9.23546 8.02337 10.1737 9.1606 10.358 9.60462C10.3314 9.63328 10.2795 9.68013 10.1807 9.75608Z" fill="#3B3B3B"/>
</svg>
